<svg xmlns="http://www.w3.org/2000/svg" xmlns:xlink="http://www.w3.org/1999/xlink" width="500" zoomAndPan="magnify" viewBox="0 0 375 374.999991" height="500" preserveAspectRatio="xMidYMid meet" version="1.0"><defs><g/><clipPath id="cffed939b7"><path d="M 153.769531 0 L 217.757812 0 L 217.757812 253.96875 L 153.769531 253.96875 Z M 153.769531 0 " clip-rule="nonzero"/></clipPath></defs><g fill="#000000" fill-opacity="1"><g transform="translate(162.147195, 231.690047)"><g><path d="M 36.445312 0 L 23.109375 -197.996094 C 22.886719 -201.773438 24 -203.996094 25.554688 -203.996094 C 26.667969 -203.996094 28.222656 -202.882812 29.554688 -200.441406 C 32.886719 -194.882812 109.109375 -51.777344 109.109375 -51.777344 C 109.109375 -51.777344 175.105469 -193.328125 178.886719 -200.441406 C 180.21875 -202.882812 181.550781 -203.996094 182.664062 -203.996094 C 184.21875 -203.996094 185.328125 -201.773438 185.328125 -197.996094 L 185.328125 0 L 203.996094 0 L 203.996094 -222.21875 L 183.550781 -222.21875 L 119.332031 -85.109375 C 117.773438 -82 116.21875 -80.441406 114.441406 -80.441406 C 112.664062 -80.441406 110.886719 -82 109.332031 -84.886719 L 36 -222.21875 L 17.777344 -222.21875 L 17.777344 0 Z M 36.445312 0 "/></g></g></g><g clip-path="url(#cffed939b7)"><path fill="#ffffff" d="M 153.769531 0 L 217.363281 0 L 217.363281 254.371094 L 153.769531 254.371094 Z M 153.769531 0 " fill-opacity="1" fill-rule="nonzero"/></g><g fill="#000000" fill-opacity="1"><g transform="translate(7.230473, 231.690047)"><g><path d="M 138.21875 -51.554688 C 144.886719 -51.554688 149.550781 -46.886719 149.550781 -40.222656 L 149.550781 0 L 167.328125 0 L 167.328125 -40.222656 C 167.328125 -46.886719 171.996094 -51.554688 178.664062 -51.554688 L 188.21875 -51.554688 L 188.21875 -68.222656 L 178.664062 -68.222656 C 171.996094 -68.222656 167.328125 -72.886719 167.328125 -79.554688 L 167.328125 -222.21875 L 149.550781 -222.21875 L 149.550781 -79.554688 C 149.550781 -72.886719 144.886719 -68.222656 138.21875 -68.222656 L 34.222656 -68.222656 C 27.109375 -68.222656 25.554688 -72.664062 30.222656 -78.21875 C 65.777344 -120.441406 87.109375 -183.773438 87.109375 -222.21875 L 68.222656 -222.21875 C 71.109375 -152.886719 51.332031 -104.886719 1.109375 -51.554688 Z M 138.21875 -51.554688 "/></g></g></g><g fill="#000000" fill-opacity="1"><g transform="translate(51.755412, 302.342764)"><g><path d="M 3.984375 -7.25 L 3.984375 0 L 1.96875 0 L 1.96875 -15.90625 L 12.625 -15.90625 L 12.625 -14.109375 L 3.984375 -14.109375 L 3.984375 -9.03125 L 11.578125 -9.03125 L 11.578125 -7.25 Z M 3.984375 -7.25 "/></g></g></g><g fill="#000000" fill-opacity="1"><g transform="translate(82.526221, 302.342764)"><g><path d="M 16.1875 -7.703125 C 16.1875 -6.554688 16.003906 -5.484375 15.640625 -4.484375 C 15.285156 -3.492188 14.78125 -2.628906 14.125 -1.890625 C 13.476562 -1.148438 12.671875 -0.566406 11.703125 -0.140625 C 10.734375 0.285156 9.664062 0.5 8.5 0.5 C 6.207031 0.5 4.351562 -0.265625 2.9375 -1.796875 C 1.53125 -3.328125 0.828125 -5.335938 0.828125 -7.828125 C 0.828125 -10.304688 1.53125 -12.316406 2.9375 -13.859375 C 4.351562 -15.398438 6.207031 -16.171875 8.5 -16.171875 C 10.820312 -16.171875 12.679688 -15.398438 14.078125 -13.859375 C 15.484375 -12.316406 16.1875 -10.265625 16.1875 -7.703125 Z M 8.5 -14.375 C 6.8125 -14.375 5.445312 -13.769531 4.40625 -12.5625 C 3.363281 -11.363281 2.84375 -9.785156 2.84375 -7.828125 C 2.84375 -5.867188 3.363281 -4.285156 4.40625 -3.078125 C 5.445312 -1.878906 6.8125 -1.28125 8.5 -1.28125 C 10.1875 -1.28125 11.550781 -1.875 12.59375 -3.0625 C 13.644531 -4.257812 14.171875 -5.816406 14.171875 -7.734375 C 14.171875 -9.742188 13.648438 -11.351562 12.609375 -12.5625 C 11.578125 -13.769531 10.207031 -14.375 8.5 -14.375 Z M 8.5 -14.375 "/></g></g></g><g fill="#000000" fill-opacity="1"><g transform="translate(116.943907, 302.342764)"><g><path d="M 12.046875 -15.90625 L 14.078125 -15.90625 L 14.078125 -4.734375 C 14.078125 -3.140625 13.519531 -1.867188 12.40625 -0.921875 C 11.289062 0.0234375 9.800781 0.5 7.9375 0.5 C 6.050781 0.5 4.566406 0.03125 3.484375 -0.90625 C 2.398438 -1.84375 1.859375 -3.117188 1.859375 -4.734375 L 1.859375 -15.90625 L 3.875 -15.90625 L 3.875 -4.734375 C 3.875 -3.578125 4.242188 -2.710938 4.984375 -2.140625 C 5.722656 -1.566406 6.707031 -1.28125 7.9375 -1.28125 C 9.21875 -1.28125 10.222656 -1.585938 10.953125 -2.203125 C 11.679688 -2.816406 12.046875 -3.660156 12.046875 -4.734375 Z M 12.046875 -15.90625 "/></g></g></g><g fill="#000000" fill-opacity="1"><g transform="translate(150.137882, 302.342764)"><g><path d="M 11.6875 -7.859375 C 12.226562 -7.628906 12.660156 -7.34375 12.984375 -7 C 13.304688 -6.65625 13.523438 -6.296875 13.640625 -5.921875 C 13.753906 -5.546875 13.820312 -5.148438 13.84375 -4.734375 C 13.875 -4.328125 13.878906 -3.914062 13.859375 -3.5 C 13.847656 -3.09375 13.851562 -2.707031 13.875 -2.34375 C 13.894531 -1.976562 13.976562 -1.628906 14.125 -1.296875 C 14.269531 -0.972656 14.5 -0.707031 14.8125 -0.5 L 14.8125 0 L 12.34375 0 C 12.050781 -0.6875 11.90625 -1.550781 11.90625 -2.59375 L 11.90625 -4.015625 C 11.90625 -4.992188 11.695312 -5.707031 11.28125 -6.15625 C 10.863281 -6.613281 10.203125 -6.84375 9.296875 -6.84375 L 4.0625 -6.84375 L 4.0625 0 L 2.03125 0 L 2.03125 -15.90625 L 9.375 -15.90625 C 10.925781 -15.90625 12.113281 -15.535156 12.9375 -14.796875 C 13.769531 -14.066406 14.1875 -13.015625 14.1875 -11.640625 C 14.1875 -10.734375 13.992188 -9.984375 13.609375 -9.390625 C 13.222656 -8.796875 12.582031 -8.285156 11.6875 -7.859375 Z M 12.078125 -11.359375 C 12.078125 -11.910156 12 -12.375 11.84375 -12.75 C 11.6875 -13.125 11.457031 -13.40625 11.15625 -13.59375 C 10.851562 -13.78125 10.523438 -13.910156 10.171875 -13.984375 C 9.828125 -14.066406 9.421875 -14.109375 8.953125 -14.109375 L 4.0625 -14.109375 L 4.0625 -8.640625 L 8.953125 -8.640625 C 10.035156 -8.640625 10.828125 -8.859375 11.328125 -9.296875 C 11.828125 -9.734375 12.078125 -10.421875 12.078125 -11.359375 Z M 12.078125 -11.359375 "/></g></g></g><g fill="#000000" fill-opacity="1"><g transform="translate(183.331857, 302.342764)"><g/></g></g><g fill="#000000" fill-opacity="1"><g transform="translate(206.845252, 302.342764)"><g><path d="M 10.203125 0 L 8.078125 0 L 3.546875 -13.3125 L 3.546875 0 L 1.625 0 L 1.625 -15.90625 L 4.453125 -15.90625 L 9.15625 -2.046875 L 13.796875 -15.90625 L 16.609375 -15.90625 L 16.609375 0 L 14.6875 0 L 14.6875 -13.3125 Z M 10.203125 0 "/></g></g></g><g fill="#000000" fill-opacity="1"><g transform="translate(242.450291, 302.342764)"><g><path d="M 16.1875 -7.703125 C 16.1875 -6.554688 16.003906 -5.484375 15.640625 -4.484375 C 15.285156 -3.492188 14.78125 -2.628906 14.125 -1.890625 C 13.476562 -1.148438 12.671875 -0.566406 11.703125 -0.140625 C 10.734375 0.285156 9.664062 0.5 8.5 0.5 C 6.207031 0.5 4.351562 -0.265625 2.9375 -1.796875 C 1.53125 -3.328125 0.828125 -5.335938 0.828125 -7.828125 C 0.828125 -10.304688 1.53125 -12.316406 2.9375 -13.859375 C 4.351562 -15.398438 6.207031 -16.171875 8.5 -16.171875 C 10.820312 -16.171875 12.679688 -15.398438 14.078125 -13.859375 C 15.484375 -12.316406 16.1875 -10.265625 16.1875 -7.703125 Z M 8.5 -14.375 C 6.8125 -14.375 5.445312 -13.769531 4.40625 -12.5625 C 3.363281 -11.363281 2.84375 -9.785156 2.84375 -7.828125 C 2.84375 -5.867188 3.363281 -4.285156 4.40625 -3.078125 C 5.445312 -1.878906 6.8125 -1.28125 8.5 -1.28125 C 10.1875 -1.28125 11.550781 -1.875 12.59375 -3.0625 C 13.644531 -4.257812 14.171875 -5.816406 14.171875 -7.734375 C 14.171875 -9.742188 13.648438 -11.351562 12.609375 -12.5625 C 11.578125 -13.769531 10.207031 -14.375 8.5 -14.375 Z M 8.5 -14.375 "/></g></g></g><g fill="#000000" fill-opacity="1"><g transform="translate(276.867983, 302.342764)"><g><path d="M 14.09375 -15.90625 L 14.09375 0 L 11.796875 0 L 3.578125 -12.875 L 3.578125 0 L 1.65625 0 L 1.65625 -15.90625 L 3.859375 -15.90625 L 12.171875 -2.90625 L 12.171875 -15.90625 Z M 14.09375 -15.90625 "/></g></g></g><g fill="#000000" fill-opacity="1"><g transform="translate(310.061958, 302.342764)"><g><path d="M 3.984375 -7.25 L 3.984375 -1.796875 L 13.375 -1.796875 L 13.375 0 L 1.96875 0 L 1.96875 -15.90625 L 12.96875 -15.90625 L 12.96875 -14.109375 L 3.984375 -14.109375 L 3.984375 -9.03125 L 12.65625 -9.03125 L 12.65625 -7.25 Z M 3.984375 -7.25 "/></g></g></g><g fill="#000000" fill-opacity="1"><g transform="translate(342.056478, 302.342764)"><g><path d="M 8.4375 -6.234375 L 8.4375 0 L 6.40625 0 L 6.40625 -6.234375 L 0.296875 -15.90625 L 2.78125 -15.90625 L 7.46875 -8.15625 L 12 -15.90625 L 14.421875 -15.90625 Z M 8.4375 -6.234375 "/></g></g></g></svg>