<svg xmlns="http://www.w3.org/2000/svg" xmlns:xlink="http://www.w3.org/1999/xlink" width="500" zoomAndPan="magnify" viewBox="0 0 375 374.999991" height="500" preserveAspectRatio="xMidYMid meet" version="1.0"><defs><g/><clipPath id="1b3ddeeed8"><path d="M 8.429688 0 L 375 0 L 375 366.570312 L 8.429688 366.570312 Z M 8.429688 0 " clip-rule="nonzero"/></clipPath><clipPath id="18d33c6671"><path d="M 191.714844 0 C 90.488281 0 8.429688 82.058594 8.429688 183.285156 C 8.429688 284.511719 90.488281 366.570312 191.714844 366.570312 C 292.941406 366.570312 375 284.511719 375 183.285156 C 375 82.058594 292.941406 0 191.714844 0 " clip-rule="nonzero"/></clipPath><clipPath id="213d7caa8b"><path d="M 163.257812 55.203125 L 200.75 55.203125 L 200.75 280.082031 L 163.257812 280.082031 Z M 163.257812 55.203125 " clip-rule="nonzero"/></clipPath></defs><rect x="-37.5" width="450" fill="#ffffff" y="-37.499999" height="449.999989" fill-opacity="1"/><rect x="-37.5" width="450" fill="#ffffff" y="-37.499999" height="449.999989" fill-opacity="1"/><rect x="-37.5" width="450" fill="#ffffff" y="-37.499999" height="449.999989" fill-opacity="1"/><g clip-path="url(#1b3ddeeed8)"><g clip-path="url(#18d33c6671)"><path fill="#ffffff" d="M 8.429688 0 L 375 0 L 375 366.570312 L 8.429688 366.570312 Z M 8.429688 0 " fill-opacity="1" fill-rule="nonzero"/></g></g><g fill="#000000" fill-opacity="1"><g transform="translate(163.258734, 276.41919)"><g><path d="M 34.796875 0 L 22.066406 -189.042969 C 21.851562 -192.648438 22.914062 -194.769531 24.398438 -194.769531 C 25.460938 -194.769531 26.945312 -193.707031 28.21875 -191.375 C 31.402344 -186.070312 104.175781 -49.433594 104.175781 -49.433594 C 104.175781 -49.433594 167.1875 -184.585938 170.792969 -191.375 C 172.066406 -193.707031 173.339844 -194.769531 174.402344 -194.769531 C 175.886719 -194.769531 176.949219 -192.648438 176.949219 -189.042969 L 176.949219 0 L 194.769531 0 L 194.769531 -212.167969 L 175.25 -212.167969 L 113.933594 -81.261719 C 112.449219 -78.289062 110.964844 -76.804688 109.265625 -76.804688 C 107.570312 -76.804688 105.871094 -78.289062 104.386719 -81.046875 L 34.371094 -212.167969 L 16.972656 -212.167969 L 16.972656 0 Z M 34.796875 0 "/></g></g></g><g clip-path="url(#213d7caa8b)"><path fill="#ffffff" d="M 163.257812 55.203125 L 200.171875 55.203125 L 200.171875 280.203125 L 163.257812 280.203125 Z M 163.257812 55.203125 " fill-opacity="1" fill-rule="nonzero"/></g><g fill="#000000" fill-opacity="1"><g transform="translate(23.058255, 276.41919)"><g><path d="M 131.96875 -49.222656 C 138.332031 -49.222656 142.789062 -44.765625 142.789062 -38.402344 L 142.789062 0 L 159.761719 0 L 159.761719 -38.402344 C 159.761719 -44.765625 164.21875 -49.222656 170.582031 -49.222656 L 179.707031 -49.222656 L 179.707031 -65.136719 L 170.582031 -65.136719 C 164.21875 -65.136719 159.761719 -69.589844 159.761719 -75.957031 L 159.761719 -212.167969 L 142.789062 -212.167969 L 142.789062 -75.957031 C 142.789062 -69.589844 138.332031 -65.136719 131.96875 -65.136719 L 32.671875 -65.136719 C 25.882812 -65.136719 24.398438 -69.378906 28.855469 -74.683594 C 62.800781 -114.996094 83.167969 -175.460938 83.167969 -212.167969 L 65.136719 -212.167969 C 67.894531 -145.972656 49.011719 -100.144531 1.0625 -49.222656 Z M 131.96875 -49.222656 "/></g></g></g></svg>