<svg xmlns="http://www.w3.org/2000/svg" xmlns:xlink="http://www.w3.org/1999/xlink" width="500" zoomAndPan="magnify" viewBox="0 0 375 374.999991" height="500" preserveAspectRatio="xMidYMid meet" version="1.0"><defs><g/></defs><g fill="#000000" fill-opacity="1"><g transform="translate(145.070664, 304.539428)"><g><path d="M 40.140625 0 L 25.453125 -218.070312 C 25.210938 -222.230469 26.433594 -224.679688 28.144531 -224.679688 C 29.371094 -224.679688 31.082031 -223.457031 32.550781 -220.761719 C 36.222656 -214.644531 120.171875 -57.027344 120.171875 -57.027344 C 120.171875 -57.027344 192.863281 -212.929688 197.023438 -220.761719 C 198.492188 -223.457031 199.960938 -224.679688 201.183594 -224.679688 C 202.898438 -224.679688 204.121094 -222.230469 204.121094 -218.070312 L 204.121094 0 L 224.679688 0 L 224.679688 -244.75 L 202.164062 -244.75 L 131.429688 -93.738281 C 129.714844 -90.3125 128.003906 -88.597656 126.046875 -88.597656 C 124.085938 -88.597656 122.128906 -90.3125 120.417969 -93.492188 L 39.648438 -244.75 L 19.578125 -244.75 L 19.578125 0 Z M 40.140625 0 "/></g></g></g><g fill="#000000" fill-opacity="1"><g transform="translate(0.0000045, 304.539428)"><g><path d="M 152.234375 -56.78125 C 159.574219 -56.78125 164.714844 -51.640625 164.714844 -44.300781 L 164.714844 0 L 184.296875 0 L 184.296875 -44.300781 C 184.296875 -51.640625 189.433594 -56.78125 196.777344 -56.78125 L 207.300781 -56.78125 L 207.300781 -75.136719 L 196.777344 -75.136719 C 189.433594 -75.136719 184.296875 -80.277344 184.296875 -87.621094 L 184.296875 -244.75 L 164.714844 -244.75 L 164.714844 -87.621094 C 164.714844 -80.277344 159.574219 -75.136719 152.234375 -75.136719 L 37.691406 -75.136719 C 29.859375 -75.136719 28.144531 -80.03125 33.285156 -86.152344 C 72.445312 -132.652344 95.941406 -202.40625 95.941406 -244.75 L 75.136719 -244.75 C 78.320312 -168.386719 56.535156 -115.519531 1.222656 -56.78125 Z M 152.234375 -56.78125 "/></g></g></g></svg>