<svg xmlns="http://www.w3.org/2000/svg" xmlns:xlink="http://www.w3.org/1999/xlink" width="500" zoomAndPan="magnify" viewBox="0 0 375 374.999991" height="500" preserveAspectRatio="xMidYMid meet" version="1.0"><defs><g/><clipPath id="7531ae9a54"><path d="M 65.652344 167.34375 L 309.347656 167.34375 L 309.347656 207.65625 L 65.652344 207.65625 Z M 65.652344 167.34375 " clip-rule="nonzero"/></clipPath></defs><rect x="-37.5" width="450" fill="#ffffff" y="-37.499999" height="449.999989" fill-opacity="1"/><rect x="-37.5" width="450" fill="#ffffff" y="-37.499999" height="449.999989" fill-opacity="1"/><rect x="-37.5" width="450" fill="#ffffff" y="-37.499999" height="449.999989" fill-opacity="1"/><g fill="#000000" fill-opacity="1"><g transform="translate(74.541826, 253.124983)"><g><path d="M 48.046875 -46.777344 L 27.148438 -46.777344 L 48.046875 -95.503906 Z M 77.34375 -25 C 80.171875 -25 81.050781 -27.539062 81.050781 -29.785156 L 81.050781 -42.382812 C 81.050781 -44.433594 79.195312 -45.605469 77.734375 -45.605469 L 69.824219 -45.605469 L 69.824219 -131.34375 C 69.824219 -133.785156 68.652344 -135.054688 66.699219 -135.054688 L 45.800781 -135.152344 C 44.238281 -135.152344 43.359375 -134.664062 42.382812 -132.320312 L 3.320312 -42.96875 C 2.636719 -41.503906 2.246094 -39.941406 2.246094 -38.378906 L 2.246094 -29.6875 C 2.246094 -26.953125 4.296875 -25 6.738281 -25 L 47.753906 -25 L 47.753906 -3.027344 C 47.753906 -1.171875 48.144531 -0.0976562 50.195312 -0.0976562 L 67.871094 -0.0976562 C 69.335938 -0.0976562 69.824219 -1.464844 69.824219 -2.929688 L 69.824219 -25 Z M 77.34375 -25 "/></g></g></g><g fill="#000000" fill-opacity="1"><g transform="translate(168.328801, 253.124983)"><g><path d="M 99.996094 -3.90625 C 99.996094 -1.855469 101.070312 0 103.121094 0 L 122.945312 0 C 125.09375 0 125.972656 -1.953125 125.972656 -3.90625 L 125.972656 -103.414062 C 125.972656 -122.164062 108.980469 -137.300781 89.449219 -137.300781 C 80.660156 -137.300781 72.363281 -134.273438 66.015625 -129.195312 C 59.570312 -134.273438 51.269531 -137.300781 42.578125 -137.300781 C 23.046875 -137.300781 6.152344 -122.164062 6.152344 -103.414062 L 6.152344 -3.808594 C 6.152344 -1.757812 7.324219 0 8.691406 0 L 29.296875 0 C 31.640625 0 32.226562 -1.660156 32.226562 -3.808594 L 32.226562 -101.949219 C 32.226562 -108.101562 36.035156 -113.667969 42.675781 -113.667969 C 49.21875 -113.667969 53.027344 -108.101562 53.027344 -101.949219 L 53.027344 -3.808594 C 53.027344 -1.757812 54.296875 0 55.664062 0 L 76.269531 0 C 78.609375 0 79.097656 -1.660156 79.097656 -3.710938 L 79.097656 -102.339844 C 79.292969 -108.296875 83.101562 -113.667969 89.546875 -113.667969 C 96.089844 -113.667969 99.996094 -108.101562 99.996094 -101.949219 Z M 99.996094 -3.90625 "/></g></g></g><g clip-path="url(#7531ae9a54)"><path fill="#ffffff" d="M 65.652344 167.34375 L 309.316406 167.34375 L 309.316406 207.953125 L 65.652344 207.953125 Z M 65.652344 167.34375 " fill-opacity="1" fill-rule="nonzero"/></g><g fill="#000000" fill-opacity="1"><g transform="translate(89.843633, 193.874987)"><g><path d="M 6.203125 -11.84375 C 6.203125 -12.054688 6.105469 -12.160156 5.964844 -12.160156 L 0.929688 -12.160156 C 0.746094 -12.160156 0.632812 -12.027344 0.632812 -11.816406 L 0.632812 -0.332031 C 0.632812 -0.121094 0.730469 0 0.929688 0 L 2.6875 0 C 2.890625 0 2.96875 -0.121094 2.96875 -0.332031 L 2.96875 -4.917969 L 5.28125 -4.917969 C 5.4375 -4.917969 5.542969 -5.023438 5.542969 -5.226562 L 5.542969 -6.722656 C 5.542969 -6.949219 5.421875 -7.027344 5.28125 -7.027344 L 2.96875 -7.027344 L 2.96875 -10.023438 L 5.964844 -10.023438 C 6.105469 -10.023438 6.203125 -10.128906 6.203125 -10.347656 Z M 6.203125 -11.84375 "/></g></g></g><g fill="#000000" fill-opacity="1"><g transform="translate(105.437599, 193.874987)"><g><path d="M 7.003906 -9.296875 C 7.003906 -11.210938 5.472656 -12.34375 3.707031 -12.34375 C 1.949219 -12.34375 0.4375 -11.203125 0.4375 -9.296875 L 0.4375 -2.855469 C 0.4375 -0.992188 1.949219 0.191406 3.707031 0.191406 C 5.472656 0.191406 7.003906 -0.949219 7.003906 -2.855469 Z M 3.726562 -10.234375 C 4.3125 -10.234375 4.664062 -9.726562 4.664062 -9.164062 L 4.664062 -2.925781 C 4.664062 -2.371094 4.3125 -1.925781 3.707031 -1.925781 C 3.109375 -1.925781 2.777344 -2.425781 2.777344 -2.976562 L 2.777344 -9.164062 C 2.777344 -9.726562 3.128906 -10.234375 3.726562 -10.234375 Z M 3.726562 -10.234375 "/></g></g></g><g fill="#000000" fill-opacity="1"><g transform="translate(122.147055, 193.874987)"><g><path d="M 4.769531 -2.988281 C 4.769531 -2.433594 4.429688 -1.925781 3.839844 -1.925781 C 3.242188 -1.925781 2.898438 -2.433594 2.898438 -2.988281 L 2.898438 -11.816406 C 2.898438 -12 2.847656 -12.160156 2.636719 -12.160156 L 0.78125 -12.160156 C 0.660156 -12.160156 0.554688 -12 0.554688 -11.816406 L 0.554688 -2.855469 C 0.554688 -1.167969 2.074219 0.191406 3.832031 0.191406 C 5.585938 0.191406 7.117188 -1.167969 7.117188 -2.855469 L 7.117188 -11.808594 C 7.117188 -11.984375 7.027344 -12.160156 6.835938 -12.160156 L 5.050781 -12.160156 C 4.867188 -12.160156 4.769531 -11.992188 4.769531 -11.808594 Z M 4.769531 -2.988281 "/></g></g></g><g fill="#000000" fill-opacity="1"><g transform="translate(139.084879, 193.874987)"><g><path d="M 4.859375 -7.527344 C 4.859375 -6.933594 4.488281 -6.535156 3.785156 -6.535156 L 2.96875 -6.535156 L 2.96875 -10.023438 L 3.847656 -10.023438 C 4.453125 -10.023438 4.859375 -9.621094 4.859375 -8.988281 Z M 6.808594 -0.0078125 C 7.046875 -0.0078125 7.125 -0.21875 7.125 -0.378906 L 7.125 -1.960938 C 7.125 -3.714844 6.738281 -4.824219 5.949219 -5.492188 C 6.660156 -5.964844 7.203125 -6.6875 7.203125 -7.730469 L 7.203125 -8.988281 C 7.203125 -10.734375 5.84375 -12.160156 4.03125 -12.160156 L 0.929688 -12.160156 C 0.746094 -12.160156 0.632812 -12.027344 0.632812 -11.816406 L 0.632812 -0.324219 C 0.632812 -0.121094 0.71875 0 0.921875 0 L 2.679688 0 C 2.871094 0 2.96875 -0.121094 2.96875 -0.324219 L 2.96875 -4.726562 C 4.171875 -4.648438 4.789062 -3.9375 4.789062 -2.242188 L 4.789062 -0.402344 C 4.789062 -0.140625 4.988281 -0.0078125 5.191406 -0.0078125 Z M 6.808594 -0.0078125 "/></g></g></g><g fill="#000000" fill-opacity="1"><g transform="translate(156.031129, 193.874987)"><g/></g></g><g fill="#000000" fill-opacity="1"><g transform="translate(169.376559, 193.874987)"><g/></g></g><g fill="#000000" fill-opacity="1"><g transform="translate(182.72199, 193.874987)"><g/></g></g><g fill="#000000" fill-opacity="1"><g transform="translate(196.062376, 193.874987)"><g><path d="M 8.996094 -0.351562 C 8.996094 -0.167969 9.09375 0 9.277344 0 L 11.0625 0 C 11.253906 0 11.332031 -0.175781 11.332031 -0.351562 L 11.332031 -9.304688 C 11.332031 -10.992188 9.804688 -12.351562 8.046875 -12.351562 C 7.257812 -12.351562 6.511719 -12.078125 5.9375 -11.625 C 5.359375 -12.078125 4.613281 -12.351562 3.832031 -12.351562 C 2.074219 -12.351562 0.554688 -10.992188 0.554688 -9.304688 L 0.554688 -0.34375 C 0.554688 -0.15625 0.660156 0 0.78125 0 L 2.636719 0 C 2.847656 0 2.898438 -0.148438 2.898438 -0.34375 L 2.898438 -9.171875 C 2.898438 -9.726562 3.242188 -10.226562 3.839844 -10.226562 C 4.429688 -10.226562 4.769531 -9.726562 4.769531 -9.171875 L 4.769531 -0.34375 C 4.769531 -0.15625 4.882812 0 5.007812 0 L 6.863281 0 C 7.070312 0 7.117188 -0.148438 7.117188 -0.332031 L 7.117188 -9.207031 C 7.132812 -9.742188 7.476562 -10.226562 8.054688 -10.226562 C 8.644531 -10.226562 8.996094 -9.726562 8.996094 -9.171875 Z M 8.996094 -0.351562 "/></g></g></g><g fill="#000000" fill-opacity="1"><g transform="translate(217.216202, 193.874987)"><g><path d="M 7.003906 -9.296875 C 7.003906 -11.210938 5.472656 -12.34375 3.707031 -12.34375 C 1.949219 -12.34375 0.4375 -11.203125 0.4375 -9.296875 L 0.4375 -2.855469 C 0.4375 -0.992188 1.949219 0.191406 3.707031 0.191406 C 5.472656 0.191406 7.003906 -0.949219 7.003906 -2.855469 Z M 3.726562 -10.234375 C 4.3125 -10.234375 4.664062 -9.726562 4.664062 -9.164062 L 4.664062 -2.925781 C 4.664062 -2.371094 4.3125 -1.925781 3.707031 -1.925781 C 3.109375 -1.925781 2.777344 -2.425781 2.777344 -2.976562 L 2.777344 -9.164062 C 2.777344 -9.726562 3.128906 -10.234375 3.726562 -10.234375 Z M 3.726562 -10.234375 "/></g></g></g><g fill="#000000" fill-opacity="1"><g transform="translate(233.925658, 193.874987)"><g><path d="M 6.835938 0 C 7.027344 0 7.117188 -0.175781 7.117188 -0.351562 L 7.117188 -9.304688 C 7.117188 -10.992188 5.585938 -12.351562 3.832031 -12.351562 C 2.074219 -12.351562 0.554688 -10.992188 0.554688 -9.304688 L 0.554688 -0.34375 C 0.554688 -0.15625 0.648438 0 0.78125 0 L 2.636719 0 C 2.835938 0 2.898438 -0.148438 2.898438 -0.34375 L 2.898438 -9.171875 C 2.898438 -9.726562 3.242188 -10.226562 3.839844 -10.226562 C 4.429688 -10.226562 4.769531 -9.726562 4.769531 -9.171875 L 4.769531 -0.351562 C 4.769531 -0.167969 4.875 0 5.050781 0 Z M 6.835938 0 "/></g></g></g><g fill="#000000" fill-opacity="1"><g transform="translate(250.863482, 193.874987)"><g><path d="M 2.96875 -2.117188 L 2.96875 -5.09375 L 5.535156 -5.09375 C 5.703125 -5.09375 5.816406 -5.183594 5.816406 -5.394531 L 5.816406 -6.898438 C 5.816406 -7.117188 5.683594 -7.203125 5.535156 -7.203125 L 2.96875 -7.203125 L 2.96875 -10.023438 L 6.183594 -10.023438 C 6.34375 -10.023438 6.429688 -10.128906 6.429688 -10.339844 L 6.429688 -11.832031 C 6.429688 -12.054688 6.34375 -12.160156 6.183594 -12.160156 L 0.929688 -12.160156 C 0.746094 -12.160156 0.632812 -12.027344 0.632812 -11.816406 L 0.632812 -0.332031 C 0.632812 -0.121094 0.730469 0 0.929688 0 L 6.230469 0 C 6.371094 0 6.484375 -0.0976562 6.484375 -0.308594 L 6.484375 -1.820312 C 6.484375 -2.019531 6.371094 -2.117188 6.230469 -2.117188 Z M 2.96875 -2.117188 "/></g></g></g><g fill="#000000" fill-opacity="1"><g transform="translate(266.817569, 193.874987)"><g><path d="M 4.8125 -4.882812 C 6.027344 -5.28125 6.933594 -6.289062 6.933594 -7.757812 L 6.933594 -11.964844 C 6.933594 -12.089844 6.863281 -12.160156 6.746094 -12.160156 L 4.777344 -12.160156 C 4.648438 -12.160156 4.585938 -12.070312 4.585938 -11.957031 L 4.585938 -7.828125 C 4.585938 -7.273438 4.253906 -6.828125 3.644531 -6.828125 C 3.039062 -6.828125 2.714844 -7.328125 2.714844 -7.878906 L 2.714844 -11.972656 C 2.714844 -12.070312 2.636719 -12.160156 2.496094 -12.160156 L 0.5625 -12.160156 C 0.429688 -12.160156 0.378906 -12.070312 0.378906 -11.957031 L 0.367188 -7.757812 C 0.367188 -6.324219 1.265625 -5.296875 2.476562 -4.894531 L 2.476562 -0.34375 C 2.476562 -0.121094 2.554688 0 2.742188 0 L 4.558594 0 C 4.742188 0 4.8125 -0.121094 4.8125 -0.34375 Z M 4.8125 -4.882812 "/></g></g></g><path stroke-linecap="butt" transform="matrix(0.750281, 0, 0, 0.75, 93.783896, 167.342773)" fill="none" stroke-linejoin="miter" d="M 0.00167978 1.001303 L 249.907947 1.001303 " stroke="#000000" stroke-width="2" stroke-opacity="1" stroke-miterlimit="4"/><path stroke-linecap="butt" transform="matrix(0.750281, 0, 0, 0.75, 93.783896, 206.157217)" fill="none" stroke-linejoin="miter" d="M 0.00167978 0.998711 L 249.907947 0.998711 " stroke="#000000" stroke-width="2" stroke-opacity="1" stroke-miterlimit="4"/></svg>