<svg xmlns="http://www.w3.org/2000/svg"  viewBox="0 0 16 16" width="160px" height="160px"><path d="M 8 1 C 6.1389188 1 4.5817359 2.2875412 4.1386719 4.0136719 C 4.0916036 4.0107218 4.048227 4 4 4 C 3.3750002 4 2.8435894 4.2523778 2.5019531 4.6367188 C 2.1603169 5.0210597 2 5.5138889 2 6 C 2 6.4861111 2.1603169 6.9789403 2.5019531 7.3632812 C 2.5067684 7.3686984 2.5126877 7.3735419 2.5175781 7.3789062 C 2.203638 7.6547459 2 8.0536302 2 8.5 C 2 9.3225314 2.6774686 10 3.5 10 L 3.90625 10 C 3.7390647 10.144505 3.563906 10.275586 3.421875 10.453125 C 3.1937444 10.738288 3 11.083333 3 11.5 A 0.50005 0.50005 0 0 0 3.5 12 L 4.0644531 12 C 4.1955135 12.586801 4.5395939 13.072849 4.9902344 13.394531 C 5.5641544 13.804214 6.2822196 13.994075 6.9960938 14 C 7.7099678 14.005925 8.430392 13.828909 9.0078125 13.419922 C 9.585233 13.010935 10 12.330865 10 11.5 C 10 10.638889 9.6866377 9.9662865 9.2050781 9.5449219 C 8.8416712 9.2269408 8.4111296 9.0492242 7.9804688 8.9511719 C 8.5556043 8.8513059 9.0382146 8.5837177 9.3730469 8.2070312 C 9.7980164 7.7289404 10 7.1111111 10 6.5 C 10 5.8888889 9.7980164 5.2710597 9.3730469 4.7929688 C 8.9480773 4.3148777 8.2916664 4 7.5 4 C 6.7083336 4 6.0519227 4.3148778 5.6269531 4.7929688 C 5.6241456 4.7961272 5.6219287 4.7995638 5.6191406 4.8027344 C 5.5794395 4.7469318 5.5443599 4.688821 5.4980469 4.6367188 C 5.3836743 4.5080495 5.2411929 4.4012117 5.0878906 4.3066406 C 5.4004008 2.9826496 6.5774591 2 8 2 L 9 2 C 10.662781 2 11.998907 3.3373587 11.998047 5 L 12.998047 5 C 12.999187 2.7966413 11.203219 1 9 1 L 8 1 z M 4 5 C 4.3749997 5 4.5935896 5.1226222 4.7519531 5.3007812 C 4.9103167 5.4789403 5 5.7361111 5 6 C 5 6.2638889 4.9103167 6.5210597 4.7519531 6.6992188 C 4.5935896 6.8773777 4.3749997 7 4 7 C 3.6250003 7 3.4064104 6.8773778 3.2480469 6.6992188 C 3.0896833 6.5210597 3 6.2638889 3 6 C 3 5.7361111 3.0896833 5.4789403 3.2480469 5.3007812 C 3.4064104 5.1226223 3.6250003 5 4 5 z M 7.5 5 C 8.0416663 5 8.3852563 5.1851222 8.6269531 5.4570312 C 8.8686499 5.7289403 9 6.1111111 9 6.5 C 9 6.8888889 8.8686499 7.2710597 8.6269531 7.5429688 C 8.3852563 7.8148777 8.0416663 8 7.5 8 C 6.9583337 8 6.6147437 7.8148778 6.3730469 7.5429688 C 6.1313501 7.2710597 6 6.8888889 6 6.5 C 6 6.1111111 6.1313501 5.7289403 6.3730469 5.4570312 C 6.6147437 5.1851223 6.9583337 5 7.5 5 z M 11.503906 5 A 0.50005 0.50005 0 0 0 11.052734 5.2773438 L 10.052734 7.2773438 L 10.947266 7.7226562 L 11.5 6.6171875 L 12.052734 7.7226562 A 0.50005 0.50005 0 0 0 12.496094 8 L 12 8 L 12 9 L 12.5 9 C 12.781469 9 13 9.2185314 13 9.5 C 13 9.7814686 12.781469 10 12.5 10 A 0.50005 0.50005 0 0 0 12 10.5 L 12 14 L 13 14 L 13 10.791016 C 13.553169 10.569234 14 10.128212 14 9.5 C 14 8.6774686 13.322531 8 12.5 8 A 0.50005 0.50005 0 0 0 12.947266 7.7226562 L 13.947266 5.7226562 L 13.052734 5.2773438 L 12.5 6.3828125 L 11.947266 5.2773438 A 0.50005 0.50005 0 0 0 11.503906 5 z M 4 5.5 A 0.5 0.5 0 0 0 4 6.5 A 0.5 0.5 0 0 0 4 5.5 z M 7.5 6 A 0.5 0.5 0 0 0 7.5 7 A 0.5 0.5 0 0 0 7.5 6 z M 3.5 8 L 5.4765625 8 C 5.5259574 8.0694542 5.569443 8.1423323 5.6269531 8.2070312 C 5.8839338 8.4961347 6.2336991 8.7134053 6.6386719 8.8496094 C 5.9896894 8.8774292 5.5500378 8.9789154 5.4648438 9 L 3.5 9 C 3.2185314 9 3 8.7814686 3 8.5 C 3 8.2185314 3.2185314 8 3.5 8 z M 6.7832031 9.8417969 C 6.9946415 9.8363206 7.2180316 9.8436602 7.4375 9.8710938 C 7.8764367 9.9259607 8.2764814 10.063943 8.5449219 10.298828 C 8.8133623 10.533714 9 10.861111 9 11.5 C 9 12.023135 8.789767 12.348471 8.4296875 12.603516 C 8.069608 12.85856 7.5400322 13.00445 7.0039062 13 C 6.4677804 12.99555 5.9358456 12.841567 5.5722656 12.582031 C 5.3492869 12.422862 5.1936622 12.233102 5.0996094 12 L 7 12 L 7 11 L 4.2871094 11 C 4.430208 10.839513 4.604334 10.672726 4.8007812 10.525391 C 5.2163719 10.213698 5.5964321 10.014603 5.6699219 9.9765625 C 5.7246905 9.963949 6.1845516 9.8573021 6.7832031 9.8417969 z"/></svg>