<svg xmlns="http://www.w3.org/2000/svg"  viewBox="0 0 16 16" width="160px" height="160px"><path d="M 7.5 2 C 5.3137917 2 3.5687572 3.2256854 2.3378906 4.734375 C 1.1070241 6.2430646 0.34976937 8.0409002 0.07421875 9.4003906 C -0.33346302 11.408675 0.84117001 12.570335 1.1015625 12.802734 C 1.1036593 12.804606 1.1054517 12.808803 1.1074219 12.810547 A 0.50028184 0.50028184 0 0 0 1.2011719 12.900391 A 0.50028184 0.50028184 0 0 0 1.2304688 12.919922 A 0.50005 0.50005 0 0 0 1.2460938 12.929688 A 0.50028184 0.50028184 0 0 0 1.2519531 12.933594 A 0.50005 0.50005 0 0 0 1.2871094 12.951172 A 0.50028184 0.50028184 0 0 0 1.3320312 12.970703 A 0.50028184 0.50028184 0 0 0 1.3417969 12.974609 A 0.50005 0.50005 0 0 0 1.3808594 12.984375 A 0.50028184 0.50028184 0 0 0 1.4296875 12.994141 A 0.50005 0.50005 0 0 0 1.4394531 12.996094 A 0.50028184 0.50028184 0 0 0 1.4902344 13 A 0.50005 0.50005 0 0 0 1.5625 12.996094 A 0.50028184 0.50028184 0 0 0 1.5859375 12.992188 A 0.50005 0.50005 0 0 0 1.5898438 12.992188 A 0.50028184 0.50028184 0 0 0 1.6289062 12.982422 A 0.50005 0.50005 0 0 0 1.6386719 12.980469 A 0.50028184 0.50028184 0 0 0 1.6582031 12.974609 A 0.50005 0.50005 0 0 0 1.6757812 12.96875 C 1.726859 12.951964 4.6364306 12 7.5 12 C 10.366896 12 13.281727 12.956089 13.326172 12.970703 C 13.326212 12.970716 13.32809 12.970692 13.328125 12.970703 A 0.50005 0.50005 0 0 0 13.376953 12.984375 A 0.50028181 0.50028181 0 0 0 13.439453 12.996094 A 0.50005 0.50005 0 0 0 13.447266 12.996094 A 0.50005 0.50005 0 0 0 13.488281 13 A 0.50005 0.50005 0 0 0 13.539062 12.998047 A 0.50028181 0.50028181 0 0 0 13.587891 12.992188 A 0.50005 0.50005 0 0 0 13.597656 12.990234 A 0.50028181 0.50028181 0 0 0 13.671875 12.96875 A 0.50028181 0.50028181 0 0 0 13.714844 12.951172 A 0.50028181 0.50028181 0 0 0 13.71875 12.949219 A 0.50005 0.50005 0 0 0 13.730469 12.943359 A 0.50028181 0.50028181 0 0 0 13.761719 12.925781 A 0.50028181 0.50028181 0 0 0 13.798828 12.900391 A 0.50028181 0.50028181 0 0 0 13.892578 12.810547 C 14.13921 12.592299 15.336746 11.424847 14.925781 9.4003906 C 14.649733 8.0410933 13.892839 6.2430577 12.662109 4.734375 C 11.43138 3.2256923 9.6862083 2 7.5 2 z M 7.5 3 C 9.3137917 3 10.778448 4.0086202 11.886719 5.3671875 C 12.994989 6.7257548 13.707361 8.4279067 13.945312 9.5996094 C 14.189754 10.803756 13.820666 11.38779 13.519531 11.726562 C 13.348964 11.394543 13.320767 11.152176 12.701172 10.621094 C 11.736848 9.7945298 10.1 9 7.5 9 C 4.9 9 3.2631524 9.7945298 2.2988281 10.621094 C 1.6792327 11.152176 1.6510363 11.394543 1.4804688 11.726562 C 1.1793338 11.387791 0.81024577 10.803756 1.0546875 9.5996094 C 1.2921369 8.4280998 2.0029447 6.7257479 3.1113281 5.3671875 C 4.2197116 4.0086271 5.6862083 3 7.5 3 z M 5.4921875 5 A 0.50005 0.50005 0 0 0 5.0253906 5.3417969 L 4.0253906 8.3417969 A 0.50028222 0.50028222 0 1 0 4.9746094 8.6582031 L 5.71875 6.4257812 L 7.1464844 7.8535156 A 0.50005 0.50005 0 0 0 7.8535156 7.8535156 L 9.28125 6.4257812 L 10.025391 8.6582031 A 0.50028184 0.50028184 0 1 0 10.974609 8.3417969 L 9.9746094 5.3417969 A 0.50005 0.50005 0 0 0 9.1464844 5.1464844 L 7.5 6.7929688 L 5.8535156 5.1464844 A 0.50005 0.50005 0 0 0 5.4921875 5 z M 7.5 10 C 9.9 10 11.263152 10.70547 12.048828 11.378906 C 12.16367 11.477342 12.241344 11.568242 12.332031 11.662109 C 11.157464 11.365464 9.3841793 11 7.5 11 C 5.6158207 11 3.8425357 11.365464 2.6679688 11.662109 C 2.7586559 11.568242 2.8363302 11.477342 2.9511719 11.378906 C 3.7368476 10.70547 5.1 10 7.5 10 z"/></svg>