<svg xmlns="http://www.w3.org/2000/svg"  viewBox="0 0 16 16" width="160px" height="160px"><path d="M 4.5 2 C 4.263 2 4.0567656 2.1663906 4.0097656 2.4003906 C 4.0047656 2.4273906 3.47 5.0150469 2.125 5.8730469 C 1.869 6.0370469 1.5994063 6.1140469 1.3164062 6.1230469 C 1.4594063 5.6770469 1.6496875 5.2238125 1.9296875 4.7578125 L 1.0703125 4.2421875 C -2.1136875 9.5471875 3.0622344 13.967719 3.1152344 14.011719 L 3.7578125 13.244141 C 3.6038125 13.114141 0.63203125 10.556141 1.0820312 7.1191406 C 1.2660312 7.1321406 1.448 7.1265625 1.625 7.1015625 C 1.79 9.7485625 3.438 11.727578 5 13.017578 L 5 15 L 6 15 L 6 13.771484 C 6.951 14.422484 7.7069687 14.777406 7.7929688 14.816406 C 7.8589687 14.847406 7.93 14.861328 8 14.861328 C 8.076 14.861328 8.1516563 14.842594 8.2226562 14.808594 C 8.3066562 14.767594 9.055 14.386125 10 13.703125 L 10 15 L 11 15 L 11 12.910156 C 12.437 11.668156 13.9515 9.8384219 14.3125 7.4824219 C 14.5165 7.6084219 14.727313 7.7194531 14.945312 7.8144531 C 15.179312 11.274453 12.475078 13.048625 12.330078 13.140625 L 12.859375 13.988281 C 12.912375 13.954281 18.114266 10.609391 14.947266 4.2753906 L 14.052734 4.7226562 C 14.380734 5.3786562 14.601047 5.9932656 14.748047 6.5722656 C 13.619047 5.8382656 12.718313 4.5015 12.070312 2.5625 C 11.996313 2.3415 11.877031 1.9663906 11.457031 2.0253906 C 11.264031 2.0503906 11.103922 2.1850938 11.044922 2.3710938 C 11.035922 2.3980938 10.274391 4.7818437 8.9003906 6.7148438 C 8.7493906 5.7638437 8.716375 4.6840469 8.984375 3.6230469 L 9.1074219 3.1386719 L 8.1367188 2.8925781 L 8.015625 3.3769531 C 7.465625 5.5519531 8.0030781 7.7395312 8.4550781 9.0195312 C 6.6110781 8.0235312 5.5011406 5.8927344 4.9941406 2.4277344 C 4.9591406 2.1867344 4.7566719 2.007 4.5136719 2 L 4.5 2 z M 11.525391 3.9433594 C 12.034391 5.1323594 12.662484 6.0714844 13.396484 6.7714844 L 13.394531 6.8007812 C 13.157531 10.703781 8.9901875 13.244828 7.9921875 13.798828 C 6.9671875 13.269828 2.6486094 10.797047 2.5996094 6.7480469 C 2.6206094 6.7350469 2.6430625 6.7278437 2.6640625 6.7148438 C 3.4560625 6.2078438 4.0109062 5.3085156 4.3789062 4.4785156 C 4.8749063 6.4475156 5.6518906 7.9251719 6.7128906 8.9511719 C 6.6218906 8.9841719 6.5317344 9.0158281 6.4277344 9.0488281 L 5.7246094 9.2792969 L 6.0390625 10.226562 L 6.7246094 10.003906 C 6.9956094 9.9199063 7.2744531 9.8284375 7.5644531 9.6484375 C 8.0704531 9.9804375 8.6263281 10.23225 9.2363281 10.40625 C 9.2813281 10.42025 9.3270469 10.425781 9.3730469 10.425781 C 9.5200469 10.425781 9.6627656 10.360187 9.7597656 10.242188 C 9.8857656 10.089187 9.9083594 9.8742656 9.8183594 9.6972656 C 9.8093594 9.6832656 9.4676875 8.9975625 9.1796875 7.9765625 C 10.274688 6.6715625 11.067391 5.0513594 11.525391 3.9433594 z M 2.9609375 7.4355469 C 2.9609375 7.4355469 3.6708437 8.8535156 5.0898438 8.8535156 C 5.4808438 8.8535156 5.7988281 8.5355313 5.7988281 8.1445312 C 5.7988281 7.4355313 2.9609375 7.4355469 2.9609375 7.4355469 z M 13.003906 7.4355469 C 13.003906 7.4355469 10.166016 7.4355312 10.166016 8.1445312 C 10.166016 8.5355313 10.484 8.8535156 10.875 8.8535156 C 12.293 8.8535156 13.003906 7.4355469 13.003906 7.4355469 z"/></svg>