<svg xmlns="http://www.w3.org/2000/svg"  viewBox="0 0 16 16" width="160px" height="160px"><path d="M 7.492188 0.992188 C 7.457031 0.992188 7.421875 0.996094 7.386719 1.007813 C 5.085938 1.046875 3.074219 2.289063 1.953125 4.132813 C 1.886719 4.195313 1.835938 4.273438 1.8125 4.363281 C 1.296875 5.292969 1 6.363281 1 7.5 C 1 8.652344 1.304688 9.730469 1.835938 10.671875 C 1.832031 10.671875 1.832031 10.671875 1.835938 10.671875 C 1.855469 10.730469 1.890625 10.785156 1.929688 10.832031 C 3.050781 12.695313 5.074219 13.957031 7.394531 13.996094 C 7.464844 14.011719 7.542969 14.011719 7.613281 13.996094 C 9.929688 13.953125 11.949219 12.691406 13.070313 10.832031 C 13.109375 10.785156 13.144531 10.734375 13.164063 10.675781 C 13.695313 9.734375 14 8.652344 14 7.5 C 14 6.359375 13.699219 5.289063 13.183594 4.355469 C 13.15625 4.273438 13.113281 4.195313 13.046875 4.132813 C 11.925781 2.292969 9.917969 1.046875 7.617188 1.007813 C 7.574219 0.996094 7.535156 0.992188 7.492188 0.992188 Z M 7 2.023438 L 7 3.039063 C 6.773438 3.070313 6.554688 3.113281 6.339844 3.171875 L 6.597656 4.132813 C 5.996094 4.292969 5.453125 4.597656 5.023438 5.023438 L 4.335938 4.335938 C 4.175781 4.492188 4.035156 4.664063 3.902344 4.84375 L 3.023438 4.335938 C 3.925781 3.058594 5.347656 2.171875 7 2.023438 Z M 8 2.023438 C 9.652344 2.171875 11.074219 3.058594 11.980469 4.335938 L 11.113281 4.835938 C 10.980469 4.652344 10.839844 4.476563 10.683594 4.320313 L 9.960938 5.039063 C 9.535156 4.613281 9.003906 4.292969 8.402344 4.132813 L 8.660156 3.171875 C 8.445313 3.113281 8.222656 3.070313 8 3.039063 Z M 7.5 5 C 7.632813 5 7.757813 5.019531 7.886719 5.039063 C 7.972656 5.054688 8.058594 5.074219 8.144531 5.09375 L 7.886719 6.054688 C 8.144531 6.125 8.359375 6.273438 8.546875 6.453125 L 9.257813 5.742188 C 9.566406 6.042969 9.785156 6.429688 9.90625 6.855469 L 8.9375 7.117188 C 8.96875 7.238281 9 7.363281 9 7.5 C 9 7.636719 8.976563 7.761719 8.945313 7.886719 L 9.90625 8.144531 C 9.789063 8.574219 9.5625 8.953125 9.257813 9.257813 L 8.5625 8.5625 C 8.378906 8.742188 8.144531 8.875 7.886719 8.945313 L 8.144531 9.90625 C 7.9375 9.960938 7.722656 10 7.5 10 C 7.277344 10 7.0625 9.960938 6.859375 9.90625 L 7.117188 8.945313 C 6.855469 8.875 6.640625 8.726563 6.453125 8.546875 L 5.742188 9.257813 C 5.4375 8.953125 5.210938 8.574219 5.09375 8.144531 L 6.066406 7.882813 C 6.03125 7.761719 6 7.636719 6 7.5 C 6 7.363281 6.03125 7.238281 6.0625 7.117188 L 5.09375 6.855469 C 5.148438 6.65625 5.230469 6.472656 5.328125 6.296875 C 5.339844 6.273438 5.355469 6.25 5.367188 6.226563 C 5.472656 6.050781 5.597656 5.886719 5.742188 5.742188 L 6.453125 6.453125 C 6.640625 6.273438 6.855469 6.125 7.113281 6.054688 L 6.855469 5.097656 C 6.867188 5.09375 6.882813 5.09375 6.898438 5.085938 C 7.089844 5.039063 7.289063 5 7.5 5 Z M 2.523438 5.203125 L 3.398438 5.710938 C 3.308594 5.914063 3.230469 6.121094 3.171875 6.339844 L 4.132813 6.597656 C 4.054688 6.886719 4 7.1875 4 7.5 C 4 7.8125 4.054688 8.113281 4.132813 8.402344 L 3.171875 8.660156 C 3.230469 8.878906 3.308594 9.089844 3.394531 9.292969 L 2.523438 9.796875 C 2.199219 9.097656 2 8.324219 2 7.5 C 2 6.675781 2.199219 5.902344 2.523438 5.203125 Z M 12.480469 5.203125 C 12.800781 5.902344 13 6.675781 13 7.5 C 13 8.324219 12.800781 9.097656 12.480469 9.796875 L 11.601563 9.289063 C 11.691406 9.085938 11.769531 8.875 11.828125 8.65625 L 10.867188 8.398438 C 10.945313 8.113281 11 7.8125 11 7.5 C 11 7.1875 10.945313 6.886719 10.871094 6.597656 L 11.828125 6.339844 C 11.769531 6.121094 11.695313 5.910156 11.609375 5.707031 Z M 9.976563 9.972656 L 10.667969 10.664063 C 10.824219 10.507813 10.964844 10.335938 11.097656 10.15625 L 11.980469 10.664063 C 11.074219 11.941406 9.652344 12.828125 8 12.972656 L 8 11.960938 C 8.226563 11.929688 8.445313 11.886719 8.660156 11.828125 L 8.402344 10.867188 C 9.003906 10.707031 9.546875 10.402344 9.976563 9.972656 Z M 5.027344 9.976563 C 5.457031 10.402344 5.996094 10.707031 6.597656 10.867188 L 6.339844 11.828125 C 6.554688 11.886719 6.777344 11.929688 7 11.957031 L 7 12.972656 C 5.347656 12.828125 3.925781 11.941406 3.023438 10.664063 L 3.886719 10.164063 C 4.019531 10.347656 4.160156 10.523438 4.320313 10.683594 Z"/></svg>