<svg xmlns="http://www.w3.org/2000/svg"  viewBox="0 0 16 16" width="160px" height="160px"><path d="M 9.765625 2 C 9.6806563 1.997875 9.5950156 2.0065937 9.5097656 2.0273438 C 9.1527656 2.1133438 8.8763906 2.38175 8.7753906 2.71875 C 8.7613906 2.75675 8.71525 2.881875 8.65625 3.046875 C 8.33325 3.026875 8.0325156 3.015625 7.8535156 3.015625 C 7.0845156 3.015625 6.4391094 3.1440781 5.6621094 3.4550781 C 5.1591094 3.3690781 4.8459375 3.3107187 4.5859375 3.2617188 C 4.1139375 3.1717188 3.8185 3.1149063 2.9375 3.0039062 C 2.7995 2.9879062 2.5534687 3.0074062 2.3554688 3.3164062 C 2.0774687 3.7564062 1.7475469 5.0974844 2.4355469 6.3964844 C 2.4105469 6.4534844 2.3999531 6.5045469 2.3769531 6.5605469 C 2.3359531 6.6455469 2.2918125 6.7283125 2.2578125 6.8203125 L 2.2792969 6.828125 C 2.1382969 7.229125 2.040625 7.6199063 2.015625 8.0039062 C 1.737625 8.0039062 1.3979063 8.003 1.0039062 8 L 0.99609375 9 C 1.3730938 9.003 1.7026094 9.0039062 1.9746094 9.0039062 L 2.0371094 9.0039062 C 2.0651094 9.2469063 2.1196875 9.4723125 2.1796875 9.6953125 L 1.0585938 10.164062 L 1.4433594 11.087891 L 2.5488281 10.626953 C 2.7068281 10.906953 2.8882813 11.169297 3.1132812 11.404297 C 4.1292813 12.462297 5.774 13 8 13 C 10.408 13 12.119891 12.458672 13.087891 11.388672 C 13.282891 11.173672 13.443125 10.935688 13.578125 10.679688 L 14.558594 11.087891 L 14.943359 10.162109 L 13.908203 9.7324219 C 13.958203 9.4984219 14.002578 9.2599063 14.017578 9.0039062 L 14.027344 9.0039062 C 14.298344 9.0039062 14.628859 9.003 15.005859 9 L 14.996094 8 C 14.602094 8.003 14.264328 8.0039062 13.986328 8.0039062 C 13.943328 7.6159063 13.851234 7.2609219 13.740234 6.9199219 C 14.073234 6.7949219 14.334359 6.5242031 14.443359 6.1582031 L 14.949219 4.4511719 C 15.076219 4.0211719 14.961016 3.5185156 14.666016 3.2285156 C 14.443016 3.0075156 14.135406 2.92925 13.816406 3.03125 L 12.945312 3.3632812 C 12.863312 2.7162813 12.639234 2.1657813 12.115234 2.0507812 C 11.527234 1.9227812 10.995922 2.1290156 10.544922 2.4160156 L 10.455078 2.3066406 C 10.266828 2.1123906 10.020531 2.006375 9.765625 2 z M 9.7011719 2.9667969 L 10.251953 3.6601562 C 10.088953 3.8991562 9.9941406 4.189 9.9941406 4.5 C 9.9941406 4.57 10.005625 4.6370781 10.015625 4.7050781 L 9.125 4.9511719 C 9.128 4.9211719 9.133625 4.8866563 9.140625 4.8476562 C 9.211625 4.4676562 9.5771719 3.4327969 9.7011719 2.9667969 z M 11.494141 4 C 11.751141 4 11.963234 4.1912187 11.990234 4.4492188 L 11.994141 4.5 C 11.994141 4.775 11.769141 5 11.494141 5 C 11.219141 5 10.994141 4.775 10.994141 4.5 C 10.994141 4.225 11.219141 4 11.494141 4 z M 7.8535156 4.015625 C 7.9785156 4.015625 8.145125 4.0202969 8.328125 4.0292969 C 8.253125 4.2722969 8.1882031 4.5001562 8.1582031 4.6601562 C 8.0352031 5.3051563 8.2291094 5.6396406 8.4121094 5.8066406 C 8.5571094 5.9386406 8.7405 6.0078125 8.9375 6.0078125 C 9.0205 6.0078125 9.1064062 5.9957031 9.1914062 5.9707031 L 10.486328 5.6035156 C 10.753328 5.8465156 11.105141 6 11.494141 6 C 11.631141 6 11.760719 5.9764062 11.886719 5.9414062 L 12.554688 6.6347656 C 12.790688 7.0857656 12.943906 7.5858281 13.003906 8.1738281 C 13.112906 9.2748281 12.898656 10.106797 12.347656 10.716797 C 11.576656 11.567797 10.113 12 8 12 C 6.085 12 4.6439844 11.554938 3.8339844 10.710938 C 3.2369844 10.089937 2.956 9.2265313 3 8.1445312 C 3.016 7.7365313 3.1417031 7.3126094 3.3457031 6.8496094 C 3.7197031 6.2056094 4.3728594 5.8106406 4.3808594 5.8066406 L 3.8710938 4.9433594 C 3.8450938 4.9583594 3.5154844 5.160625 3.1464844 5.515625 C 2.9474844 4.888625 3.0419062 4.3221094 3.1289062 4.0371094 C 3.7419062 4.1181094 4.0073906 4.1671875 4.4003906 4.2421875 C 4.6873906 4.2971875 5.0407187 4.3638438 5.6367188 4.4648438 L 5.7792969 4.4882812 L 5.9140625 4.4316406 C 6.5120625 4.1816406 7.0695156 4.015625 7.8535156 4.015625 z M 13.994141 4.0332031 C 14.001141 4.0752031 14.003234 4.1259687 13.990234 4.1679688 L 13.484375 5.8730469 C 13.454375 5.9730469 13.391875 5.9908438 13.296875 5.9648438 L 12.716797 5.3613281 C 12.889797 5.1173281 12.992188 4.821 12.992188 4.5 C 12.992188 4.471 12.990281 4.4459688 12.988281 4.4179688 L 13.994141 4.0332031 z M 5.4960938 8 A 0.504 0.5 0 0 0 5.4960938 9 A 0.504 0.5 0 0 0 5.4960938 8 z M 10.515625 8.015625 A 0.5 0.5 0 0 0 10.515625 9.015625 A 0.5 0.5 0 0 0 10.515625 8.015625 z M 8 9 A 1 0.5 0 0 0 8 10 A 1 0.5 0 0 0 8 9 z"/></svg>