<svg xmlns="http://www.w3.org/2000/svg"  viewBox="0 0 16 16" width="160px" height="160px"><path d="M 7 0 L 7 1.3417969 C 6.576376 1.4924358 6.2429479 1.8246651 6.0917969 2.2480469 C 4.3033496 2.8436846 3 4.515337 3 6.5 L 3.2988281 6.5 C 2.5706428 6.9382277 2 7.5927778 2 8.5 C 2 9.4072222 2.5706428 10.061772 3.2988281 10.5 L 3 10.5 L 3 15 L 4 15 L 5 15 L 5 14.5 C 5 13.664985 5.6649849 13 6.5 13 L 8.5 13 C 9.3350151 13 10 13.664985 10 14.5 L 10 15 L 11 15 L 12 15 L 12 10.5 L 11.701172 10.5 C 12.429357 10.061772 13 9.4072222 13 8.5 C 13 7.5927778 12.429357 6.9382277 11.701172 6.5 L 12 6.5 C 12 4.515337 10.69665 2.8436846 8.9082031 2.2480469 C 8.7570521 1.8246651 8.423624 1.4924358 8 1.3417969 L 8 0 L 7 0 z M 7.5 3 C 9.3256708 3 10.767849 4.4012247 10.935547 6.1816406 C 10.775144 6.1490279 10.669658 6 10.5 6 L 4.5 6 C 4.3303416 6 4.2248562 6.1490279 4.0644531 6.1816406 C 4.2321514 4.4012247 5.6743292 3 7.5 3 z M 4.5 7 L 10.5 7 C 11.335015 7 12 7.6649849 12 8.5 C 12 9.3350151 11.335015 10 10.5 10 L 4.5 10 C 3.6649849 10 3 9.3350151 3 8.5 C 3 7.6649849 3.6649849 7 4.5 7 z M 5 8 L 5 9 L 6 9 L 6 8 L 5 8 z M 9 8 L 9 9 L 10 9 L 10 8 L 9 8 z M 4 10.792969 C 4.1820704 10.83554 4.3054407 11 4.5 11 L 10.5 11 C 10.694559 11 10.81793 10.83554 11 10.792969 L 11 14.5 C 11 13.125015 9.8749849 12 8.5 12 L 6.5 12 C 5.1250151 12 4 13.125015 4 14.5 L 4 10.792969 z"/></svg>