<svg xmlns="http://www.w3.org/2000/svg" xmlns:xlink="http://www.w3.org/1999/xlink" width="5000" zoomAndPan="magnify" viewBox="0 0 3750 3749.999967" height="5000" preserveAspectRatio="xMidYMid meet" version="1.0"><defs><clipPath id="601456d805"><path d="M 1401.285156 144.101562 L 2324 144.101562 L 2324 2944.375 L 1401.285156 2944.375 Z M 1401.285156 144.101562 " clip-rule="nonzero"/></clipPath></defs><path fill="#000000" d="M 1920.742188 2843.539062 L 1775.179688 681.707031 C 1772.734375 640.464844 1784.878906 616.175781 1801.832031 616.175781 C 1813.972656 616.175781 1831.007812 628.320312 1845.515625 654.972656 C 1881.945312 715.617188 2714.074219 2278.203125 2714.074219 2278.203125 C 2714.074219 2278.203125 3434.628906 732.648438 3475.871094 654.972656 C 3490.457031 628.320312 3504.96875 616.175781 3517.109375 616.175781 C 3534.140625 616.175781 3546.285156 640.464844 3546.285156 681.707031 L 3546.285156 2843.539062 L 3750.039062 2843.539062 L 3750.039062 417.214844 L 3526.808594 417.214844 L 2825.652344 1914.269531 C 2808.699219 1948.257812 2791.746094 1965.210938 2772.347656 1965.210938 C 2752.871094 1965.210938 2733.472656 1948.257812 2716.519531 1916.714844 L 1915.851562 417.214844 L 1716.90625 417.214844 L 1716.90625 2843.539062 Z M 1920.742188 2843.539062 " fill-opacity="1" fill-rule="nonzero"/><g clip-path="url(#601456d805)"><path fill="#ffffff" d="M 1401.285156 144.101562 L 2323.859375 144.101562 L 2323.859375 2947.527344 L 1401.285156 2947.527344 Z M 1401.285156 144.101562 " fill-opacity="1" fill-rule="nonzero"/></g><path fill="#000000" d="M 1496.867188 2280.644531 C 1569.648438 2280.644531 1620.585938 2331.589844 1620.585938 2404.375 L 1620.585938 2843.539062 L 1814.644531 2843.539062 L 1814.644531 2404.375 C 1814.644531 2331.589844 1865.582031 2280.644531 1938.363281 2280.644531 L 2042.683594 2280.644531 L 2042.683594 2098.640625 L 1938.363281 2098.640625 C 1865.582031 2098.640625 1814.644531 2047.699219 1814.644531 1974.910156 L 1814.644531 417.214844 L 1620.585938 417.214844 L 1620.585938 1974.910156 C 1620.585938 2047.699219 1569.648438 2098.640625 1496.867188 2098.640625 L 361.390625 2098.640625 C 283.800781 2098.640625 266.769531 2050.140625 317.707031 1989.5 C 705.898438 1528.492188 938.828125 836.980469 938.828125 417.214844 L 732.628906 417.214844 C 764.167969 1174.257812 548.191406 1698.351562 -0.0703125 2280.644531 Z M 1496.867188 2280.644531 " fill-opacity="1" fill-rule="nonzero"/><path fill="#000000" d="M 307.828125 3523.703125 L 307.828125 3600.984375 L 286.066406 3600.984375 L 286.066406 3431.28125 L 399.925781 3431.28125 L 399.925781 3450.523438 L 307.828125 3450.523438 L 307.828125 3504.777344 L 388.886719 3504.777344 L 388.886719 3523.703125 Z M 307.828125 3523.703125 " fill-opacity="1" fill-rule="nonzero"/><path fill="#000000" d="M 766.238281 3518.65625 C 766.238281 3530.878906 764.191406 3542.316406 760.246094 3553.039062 C 756.460938 3563.765625 751.101562 3573.148438 744.160156 3581.113281 C 737.222656 3588.921875 728.546875 3595.148438 718.296875 3599.722656 C 707.96875 3604.140625 696.613281 3606.347656 684.234375 3606.347656 C 659.632812 3606.347656 639.761719 3598.148438 624.621094 3581.746094 C 609.640625 3565.339844 602.226562 3543.890625 602.226562 3517.394531 C 602.226562 3490.898438 609.640625 3469.449219 624.621094 3453.046875 C 639.761719 3436.644531 659.472656 3428.441406 683.917969 3428.441406 C 708.675781 3428.441406 728.546875 3436.644531 743.53125 3453.046875 C 758.671875 3469.449219 766.238281 3491.371094 766.238281 3518.65625 Z M 683.917969 3447.683594 C 666.019531 3447.683594 651.507812 3454.152344 640.390625 3466.925781 C 629.195312 3479.78125 623.675781 3496.734375 623.675781 3517.710938 C 623.675781 3538.53125 629.195312 3555.40625 640.390625 3568.179688 C 651.507812 3581.035156 666.097656 3587.421875 684.234375 3587.421875 C 702.054688 3587.421875 716.5625 3581.113281 727.761719 3568.496094 C 738.878906 3555.722656 744.476562 3539.003906 744.476562 3518.34375 C 744.476562 3496.890625 738.878906 3479.78125 727.761719 3466.925781 C 716.800781 3454.152344 702.210938 3447.683594 683.917969 3447.683594 Z M 683.917969 3447.683594 " fill-opacity="1" fill-rule="nonzero"/><path fill="#000000" d="M 1089.148438 3431.28125 L 1110.597656 3431.28125 L 1110.597656 3550.515625 C 1110.597656 3567.550781 1104.605469 3581.113281 1092.617188 3591.207031 C 1080.789062 3601.300781 1065.019531 3606.347656 1045.308594 3606.347656 C 1025.121094 3606.347656 1009.191406 3601.378906 997.679688 3591.523438 C 986.089844 3581.429688 980.332031 3567.785156 980.332031 3550.515625 L 980.332031 3431.28125 L 1001.78125 3431.28125 L 1001.78125 3550.515625 C 1001.78125 3562.738281 1005.644531 3571.964844 1013.449219 3578.273438 C 1021.414062 3584.425781 1032.058594 3587.421875 1045.308594 3587.421875 C 1058.710938 3587.421875 1069.355469 3584.1875 1077.164062 3577.644531 C 1085.128906 3570.941406 1089.148438 3561.871094 1089.148438 3550.515625 Z M 1089.148438 3431.28125 " fill-opacity="1" fill-rule="nonzero"/><path fill="#000000" d="M 1439.351562 3517.078125 C 1445.027344 3519.605469 1449.523438 3522.757812 1452.914062 3526.542969 C 1456.460938 3530.171875 1458.746094 3533.957031 1459.851562 3537.898438 C 1461.113281 3541.921875 1461.824219 3546.101562 1462.058594 3550.515625 C 1462.453125 3554.933594 1462.53125 3559.347656 1462.375 3563.765625 C 1462.375 3568.023438 1462.375 3572.125 1462.375 3576.066406 C 1462.53125 3579.851562 1463.398438 3583.558594 1464.898438 3587.105469 C 1466.554688 3590.734375 1469.078125 3593.574219 1472.46875 3595.625 L 1472.46875 3600.984375 L 1446.289062 3600.984375 C 1443.136719 3593.652344 1441.558594 3584.425781 1441.558594 3573.226562 L 1441.558594 3558.085938 C 1441.558594 3547.597656 1439.191406 3539.949219 1434.617188 3535.058594 C 1430.203125 3530.25 1423.105469 3527.804688 1413.488281 3527.804688 L 1357.660156 3527.804688 L 1357.660156 3600.984375 L 1336.210938 3600.984375 L 1336.210938 3431.28125 L 1414.433594 3431.28125 C 1430.992188 3431.28125 1443.765625 3435.226562 1452.597656 3442.953125 C 1461.429688 3450.761719 1465.84375 3462.035156 1465.84375 3476.703125 C 1465.84375 3486.402344 1463.714844 3494.367188 1459.535156 3500.675781 C 1455.515625 3506.984375 1448.8125 3512.507812 1439.351562 3517.078125 Z M 1443.449219 3479.542969 C 1443.449219 3473.867188 1442.582031 3469.054688 1440.925781 3465.035156 C 1439.191406 3461.089844 1436.667969 3458.09375 1433.359375 3456.203125 C 1430.203125 3454.152344 1426.734375 3452.652344 1422.949219 3451.785156 C 1419.320312 3450.996094 1415.0625 3450.523438 1410.015625 3450.523438 L 1357.660156 3450.523438 L 1357.660156 3508.878906 L 1410.015625 3508.878906 C 1421.53125 3508.878906 1429.964844 3506.59375 1435.25 3501.9375 C 1440.691406 3497.128906 1443.449219 3489.636719 1443.449219 3479.542969 Z M 1443.449219 3479.542969 " fill-opacity="1" fill-rule="nonzero"/><path fill="#000000" d="M 2027.984375 3600.984375 L 2005.273438 3600.984375 L 1957.015625 3458.726562 L 1957.015625 3600.984375 L 1936.515625 3600.984375 L 1936.515625 3431.28125 L 1966.480469 3431.28125 L 2016.945312 3579.21875 L 2066.464844 3431.28125 L 2096.429688 3431.28125 L 2096.429688 3600.984375 L 2075.925781 3600.984375 L 2075.925781 3458.726562 Z M 2027.984375 3600.984375 " fill-opacity="1" fill-rule="nonzero"/><path fill="#000000" d="M 2471.734375 3518.65625 C 2471.734375 3530.878906 2469.6875 3542.316406 2465.742188 3553.039062 C 2461.957031 3563.765625 2456.597656 3573.148438 2449.65625 3581.113281 C 2442.71875 3588.921875 2434.042969 3595.148438 2423.792969 3599.722656 C 2413.464844 3604.140625 2402.109375 3606.347656 2389.730469 3606.347656 C 2365.128906 3606.347656 2345.257812 3598.148438 2330.117188 3581.746094 C 2315.132812 3565.339844 2307.722656 3543.890625 2307.722656 3517.394531 C 2307.722656 3490.898438 2315.132812 3469.449219 2330.117188 3453.046875 C 2345.257812 3436.644531 2364.96875 3428.441406 2389.414062 3428.441406 C 2414.171875 3428.441406 2434.042969 3436.644531 2449.027344 3453.046875 C 2464.164062 3469.449219 2471.734375 3491.371094 2471.734375 3518.65625 Z M 2389.414062 3447.683594 C 2371.515625 3447.683594 2357.003906 3454.152344 2345.886719 3466.925781 C 2334.691406 3479.78125 2329.171875 3496.734375 2329.171875 3517.710938 C 2329.171875 3538.53125 2334.691406 3555.40625 2345.886719 3568.179688 C 2357.003906 3581.035156 2371.59375 3587.421875 2389.730469 3587.421875 C 2407.550781 3587.421875 2422.058594 3581.113281 2433.253906 3568.496094 C 2444.375 3555.722656 2449.972656 3539.003906 2449.972656 3518.34375 C 2449.972656 3496.890625 2444.375 3479.78125 2433.253906 3466.925781 C 2422.296875 3454.152344 2407.707031 3447.683594 2389.414062 3447.683594 Z M 2389.414062 3447.683594 " fill-opacity="1" fill-rule="nonzero"/><path fill="#000000" d="M 2816.386719 3431.28125 L 2816.386719 3600.984375 L 2791.785156 3600.984375 L 2704.101562 3463.457031 L 2704.101562 3600.984375 L 2683.601562 3600.984375 L 2683.601562 3431.28125 L 2707.257812 3431.28125 L 2795.886719 3570.074219 L 2795.886719 3431.28125 Z M 2816.386719 3431.28125 " fill-opacity="1" fill-rule="nonzero"/><path fill="#000000" d="M 3062.503906 3523.703125 L 3062.503906 3581.746094 L 3162.804688 3581.746094 L 3162.804688 3600.984375 L 3040.742188 3600.984375 L 3040.742188 3431.28125 L 3158.386719 3431.28125 L 3158.386719 3450.523438 L 3062.503906 3450.523438 L 3062.503906 3504.777344 L 3154.917969 3504.777344 L 3154.917969 3523.703125 Z M 3062.503906 3523.703125 " fill-opacity="1" fill-rule="nonzero"/><path fill="#000000" d="M 3451.023438 3534.429688 L 3451.023438 3600.984375 L 3429.574219 3600.984375 L 3429.574219 3534.429688 L 3364.285156 3431.28125 L 3390.78125 3431.28125 L 3440.929688 3513.925781 L 3489.1875 3431.28125 L 3515.050781 3431.28125 Z M 3451.023438 3534.429688 " fill-opacity="1" fill-rule="nonzero"/></svg>