<svg xmlns="http://www.w3.org/2000/svg" xmlns:xlink="http://www.w3.org/1999/xlink" width="500" zoomAndPan="magnify" viewBox="0 0 375 374.999991" height="500" preserveAspectRatio="xMidYMid meet" version="1.0"><defs><clipPath id="f1be703035"><path d="M 172 41 L 361.375 41 L 361.375 267 L 172 267 Z M 172 41 " clip-rule="nonzero"/></clipPath><clipPath id="63b6c95c47"><path d="M 143.414062 15.734375 L 229.101562 15.734375 L 229.101562 275.539062 L 143.414062 275.539062 Z M 143.414062 15.734375 " clip-rule="nonzero"/></clipPath><clipPath id="63bef3d34d"><path d="M 13.375 41 L 203 41 L 203 267 L 13.375 267 Z M 13.375 41 " clip-rule="nonzero"/></clipPath></defs><g clip-path="url(#f1be703035)"><path fill="#000000" d="M 191.621094 266.183594 L 178.109375 65.613281 C 177.882812 61.789062 179.011719 59.535156 180.585938 59.535156 C 181.710938 59.535156 183.292969 60.660156 184.636719 63.132812 C 188.019531 68.761719 265.242188 213.730469 265.242188 213.730469 C 265.242188 213.730469 332.109375 70.339844 335.933594 63.132812 C 337.289062 60.660156 338.636719 59.535156 339.761719 59.535156 C 341.34375 59.535156 342.46875 61.789062 342.46875 65.613281 L 342.46875 266.183594 L 361.378906 266.183594 L 361.378906 41.074219 L 340.664062 41.074219 L 275.59375 179.96875 C 274.023438 183.121094 272.449219 184.695312 270.648438 184.695312 C 268.839844 184.695312 267.039062 183.121094 265.46875 180.195312 L 191.164062 41.074219 L 172.703125 41.074219 L 172.703125 266.183594 Z M 191.621094 266.183594 " fill-opacity="1" fill-rule="nonzero"/></g><g clip-path="url(#63b6c95c47)"><path fill="#ffffff" d="M 143.414062 15.734375 L 229.027344 15.734375 L 229.027344 275.832031 L 143.414062 275.832031 Z M 143.414062 15.734375 " fill-opacity="1" fill-rule="nonzero"/></g><g clip-path="url(#63bef3d34d)"><path fill="#000000" d="M 152.285156 213.960938 C 159.039062 213.960938 163.765625 218.683594 163.765625 225.4375 L 163.765625 266.183594 L 181.773438 266.183594 L 181.773438 225.4375 C 181.773438 218.683594 186.5 213.960938 193.253906 213.960938 L 202.9375 213.960938 L 202.9375 197.074219 L 193.253906 197.074219 C 186.5 197.074219 181.773438 192.347656 181.773438 185.59375 L 181.773438 41.074219 L 163.765625 41.074219 L 163.765625 185.59375 C 163.765625 192.347656 159.039062 197.074219 152.285156 197.074219 L 46.910156 197.074219 C 39.710938 197.074219 38.128906 192.574219 42.859375 186.949219 C 78.882812 144.175781 100.496094 80.019531 100.496094 41.074219 L 81.363281 41.074219 C 84.289062 111.3125 64.246094 159.933594 13.367188 213.960938 Z M 152.285156 213.960938 " fill-opacity="1" fill-rule="nonzero"/></g><path fill="#000000" d="M 41.941406 329.285156 L 41.941406 336.457031 L 39.921875 336.457031 L 39.921875 320.710938 L 50.488281 320.710938 L 50.488281 322.496094 L 41.941406 322.496094 L 41.941406 327.53125 L 49.464844 327.53125 L 49.464844 329.285156 Z M 41.941406 329.285156 " fill-opacity="1" fill-rule="nonzero"/><path fill="#000000" d="M 84.480469 328.820312 C 84.480469 329.953125 84.292969 331.011719 83.925781 332.007812 C 83.574219 333.003906 83.078125 333.875 82.433594 334.613281 C 81.789062 335.335938 80.984375 335.914062 80.03125 336.339844 C 79.074219 336.75 78.019531 336.953125 76.871094 336.953125 C 74.589844 336.953125 72.746094 336.191406 71.339844 334.671875 C 69.949219 333.148438 69.261719 331.160156 69.261719 328.703125 C 69.261719 326.242188 69.949219 324.253906 71.339844 322.730469 C 72.746094 321.210938 74.574219 320.449219 76.84375 320.449219 C 79.140625 320.449219 80.984375 321.210938 82.375 322.730469 C 83.777344 324.253906 84.480469 326.285156 84.480469 328.820312 Z M 76.84375 322.234375 C 75.179688 322.234375 73.835938 322.832031 72.804688 324.019531 C 71.761719 325.210938 71.25 326.785156 71.25 328.730469 C 71.25 330.660156 71.761719 332.226562 72.804688 333.414062 C 73.835938 334.605469 75.1875 335.199219 76.871094 335.199219 C 78.523438 335.199219 79.871094 334.613281 80.910156 333.441406 C 81.941406 332.257812 82.460938 330.707031 82.460938 328.789062 C 82.460938 326.800781 81.941406 325.210938 80.910156 324.019531 C 79.894531 322.832031 78.539062 322.234375 76.84375 322.234375 Z M 76.84375 322.234375 " fill-opacity="1" fill-rule="nonzero"/><path fill="#000000" d="M 114.449219 320.710938 L 116.4375 320.710938 L 116.4375 331.773438 C 116.4375 333.355469 115.882812 334.613281 114.769531 335.550781 C 113.671875 336.484375 112.207031 336.953125 110.378906 336.953125 C 108.503906 336.953125 107.027344 336.492188 105.960938 335.578125 C 104.882812 334.640625 104.347656 333.375 104.347656 331.773438 L 104.347656 320.710938 L 106.339844 320.710938 L 106.339844 331.773438 C 106.339844 332.90625 106.699219 333.765625 107.421875 334.347656 C 108.160156 334.921875 109.148438 335.199219 110.378906 335.199219 C 111.621094 335.199219 112.609375 334.898438 113.335938 334.289062 C 114.074219 333.667969 114.449219 332.828125 114.449219 331.773438 Z M 114.449219 320.710938 " fill-opacity="1" fill-rule="nonzero"/><path fill="#000000" d="M 146.945312 328.671875 C 147.472656 328.90625 147.890625 329.199219 148.203125 329.550781 C 148.535156 329.886719 148.746094 330.238281 148.847656 330.605469 C 148.964844 330.976562 149.03125 331.363281 149.054688 331.773438 C 149.089844 332.183594 149.097656 332.59375 149.082031 333.003906 C 149.082031 333.398438 149.082031 333.777344 149.082031 334.144531 C 149.097656 334.496094 149.179688 334.839844 149.316406 335.167969 C 149.46875 335.503906 149.703125 335.769531 150.019531 335.960938 L 150.019531 336.457031 L 147.589844 336.457031 C 147.296875 335.777344 147.152344 334.921875 147.152344 333.882812 L 147.152344 332.476562 C 147.152344 331.503906 146.929688 330.792969 146.507812 330.339844 C 146.097656 329.894531 145.4375 329.667969 144.546875 329.667969 L 139.363281 329.667969 L 139.363281 336.457031 L 137.375 336.457031 L 137.375 320.710938 L 144.632812 320.710938 C 146.171875 320.710938 147.355469 321.078125 148.175781 321.792969 C 148.996094 322.519531 149.40625 323.566406 149.40625 324.925781 C 149.40625 325.824219 149.207031 326.566406 148.820312 327.148438 C 148.445312 327.734375 147.824219 328.246094 146.945312 328.671875 Z M 147.328125 325.191406 C 147.328125 324.664062 147.246094 324.214844 147.09375 323.84375 C 146.929688 323.476562 146.699219 323.199219 146.390625 323.023438 C 146.097656 322.832031 145.773438 322.695312 145.425781 322.613281 C 145.085938 322.539062 144.691406 322.496094 144.222656 322.496094 L 139.363281 322.496094 L 139.363281 327.910156 L 144.222656 327.910156 C 145.292969 327.910156 146.074219 327.699219 146.566406 327.265625 C 147.070312 326.820312 147.328125 326.125 147.328125 325.191406 Z M 147.328125 325.191406 " fill-opacity="1" fill-rule="nonzero"/><path fill="#000000" d="M 201.570312 336.457031 L 199.464844 336.457031 L 194.984375 323.257812 L 194.984375 336.457031 L 193.082031 336.457031 L 193.082031 320.710938 L 195.863281 320.710938 L 200.546875 334.4375 L 205.140625 320.710938 L 207.921875 320.710938 L 207.921875 336.457031 L 206.019531 336.457031 L 206.019531 323.257812 Z M 201.570312 336.457031 " fill-opacity="1" fill-rule="nonzero"/><path fill="#000000" d="M 242.75 328.820312 C 242.75 329.953125 242.5625 331.011719 242.195312 332.007812 C 241.84375 333.003906 241.347656 333.875 240.703125 334.613281 C 240.058594 335.335938 239.253906 335.914062 238.300781 336.339844 C 237.34375 336.75 236.289062 336.953125 235.140625 336.953125 C 232.859375 336.953125 231.015625 336.191406 229.609375 334.671875 C 228.21875 333.148438 227.53125 331.160156 227.53125 328.703125 C 227.53125 326.242188 228.21875 324.253906 229.609375 322.730469 C 231.015625 321.210938 232.84375 320.449219 235.113281 320.449219 C 237.410156 320.449219 239.253906 321.210938 240.644531 322.730469 C 242.050781 324.253906 242.75 326.285156 242.75 328.820312 Z M 235.113281 322.234375 C 233.449219 322.234375 232.105469 322.832031 231.074219 324.019531 C 230.035156 325.210938 229.519531 326.785156 229.519531 328.730469 C 229.519531 330.660156 230.035156 332.226562 231.074219 333.414062 C 232.105469 334.605469 233.457031 335.199219 235.140625 335.199219 C 236.796875 335.199219 238.140625 334.613281 239.179688 333.441406 C 240.210938 332.257812 240.730469 330.707031 240.730469 328.789062 C 240.730469 326.800781 240.210938 325.210938 239.179688 324.019531 C 238.164062 322.832031 236.808594 322.234375 235.113281 322.234375 Z M 235.113281 322.234375 " fill-opacity="1" fill-rule="nonzero"/><path fill="#000000" d="M 274.734375 320.710938 L 274.734375 336.457031 L 272.453125 336.457031 L 264.316406 323.695312 L 264.316406 336.457031 L 262.414062 336.457031 L 262.414062 320.710938 L 264.609375 320.710938 L 272.832031 333.589844 L 272.832031 320.710938 Z M 274.734375 320.710938 " fill-opacity="1" fill-rule="nonzero"/><path fill="#000000" d="M 297.574219 329.285156 L 297.574219 334.671875 L 306.882812 334.671875 L 306.882812 336.457031 L 295.554688 336.457031 L 295.554688 320.710938 L 306.472656 320.710938 L 306.472656 322.496094 L 297.574219 322.496094 L 297.574219 327.53125 L 306.152344 327.53125 L 306.152344 329.285156 Z M 297.574219 329.285156 " fill-opacity="1" fill-rule="nonzero"/><path fill="#000000" d="M 333.628906 330.28125 L 333.628906 336.457031 L 331.640625 336.457031 L 331.640625 330.28125 L 325.582031 320.710938 L 328.039062 320.710938 L 332.691406 328.378906 L 337.171875 320.710938 L 339.570312 320.710938 Z M 333.628906 330.28125 " fill-opacity="1" fill-rule="nonzero"/></svg>