<svg xmlns="http://www.w3.org/2000/svg"  viewBox="0 0 16 16" width="160px" height="160px"><path d="M 2.5273438 0.0703125 C 1.4474257 3.1826363 3.8384722 6.4441519 4.0332031 6.703125 L 3.796875 6.8613281 L 2.5683594 10.548828 L 4.5566406 13.216797 C 4.3160775 13.793484 3.5500327 14.945074 2.8183594 15.091797 C 3.1717003 15.529792 4.7347198 15.579951 5.6347656 14.591797 L 6.8867188 16 L 9.4082031 16 L 10.507812 14.644531 C 11.314956 15.581117 12.937508 15.522379 13.28125 15.091797 C 12.563137 14.946051 11.811976 13.810985 11.568359 13.230469 L 13.505859 10.542969 L 12.279297 6.8613281 L 12.136719 6.7675781 L 11.988281 6.6699219 C 12.241997 6.3279686 14.528977 3.1371463 13.464844 0.0703125 L 12.519531 0.0703125 C 11.701578 2.4276541 9.8625288 4.4079384 9.3632812 4.9199219 L 8.734375 4.5 L 7.3398438 4.5 L 6.6640625 4.9492188 C 6.2144556 4.4931979 4.3072801 2.4756984 3.4726562 0.0703125 L 2.5273438 0.0703125 z M 3.3632812 1.8632812 C 4.3744268 3.7341272 5.4702458 5.0436225 5.8535156 5.4902344 L 4.8691406 6.1464844 C 4.7684518 5.9924171 3.4550913 3.9520624 3.3632812 1.8632812 z M 12.628906 1.8671875 C 12.539598 3.9038757 11.307607 5.8699803 11.152344 6.1113281 L 10.171875 5.4589844 C 10.576125 4.9848185 11.636198 3.7054342 12.628906 1.8671875 z M 7.8535156 5.5 L 8.2226562 5.5 L 9.1035156 8.140625 L 8.2285156 9.0136719 L 8.9375 9.7207031 L 10.248047 8.4101562 L 9.5175781 6.2246094 L 11.439453 7.5039062 L 11.734375 8.3886719 C 11.273178 8.7556738 10.494165 9.3798464 9.1308594 10.447266 C 10.423498 10.964486 11.33861 10.972072 12.007812 9.2089844 L 12.394531 10.375 L 10.503906 12.998047 C 9.752648 13.161815 9.0717981 13.436075 8.5820312 14 L 7.4921875 14 C 6.9184375 13.466 6.3036406 13.170266 5.6621094 13.027344 L 3.6816406 10.369141 L 4.0683594 9.2089844 C 4.7370174 10.971792 5.6519161 10.964459 6.9453125 10.447266 C 5.7013157 9.4522273 4.8368329 8.7762025 4.3417969 8.3886719 L 4.6367188 7.5039062 L 6.5566406 6.2246094 L 5.828125 8.4101562 L 7.1386719 9.7207031 L 7.8457031 9.0136719 L 6.9726562 8.140625 L 7.8535156 5.5 z M 6.7539062 11.197266 L 6.046875 11.904297 L 7.2851562 13.142578 L 8.7910156 13.142578 L 10.029297 11.904297 L 9.3222656 11.197266 L 8.375 12.142578 L 7.6992188 12.142578 L 6.7539062 11.197266 z"/></svg>