<svg xmlns="http://www.w3.org/2000/svg" xmlns:xlink="http://www.w3.org/1999/xlink" zoomAndPan="magnify" preserveAspectRatio="xMidYMid meet" version="1.0" viewBox="93.84 95.25 185.77 171.5"><defs><g/><clipPath id="674ff7dbfe"><path d="M 163.257812 95.253906 L 209 95.253906 L 209 233.964844 L 163.257812 233.964844 Z M 163.257812 95.253906 " clip-rule="nonzero"/></clipPath></defs><g fill="#000000" fill-opacity="1"><g transform="translate(169.279388, 228.969873)"><g><path d="M 19.710938 0 L 12.5 -107.085938 C 12.378906 -109.128906 12.980469 -110.332031 13.820312 -110.332031 C 14.421875 -110.332031 15.265625 -109.730469 15.984375 -108.410156 C 17.789062 -105.40625 59.011719 -28.003906 59.011719 -28.003906 C 59.011719 -28.003906 94.707031 -104.5625 96.75 -108.410156 C 97.472656 -109.730469 98.191406 -110.332031 98.792969 -110.332031 C 99.636719 -110.332031 100.238281 -109.128906 100.238281 -107.085938 L 100.238281 0 L 110.332031 0 L 110.332031 -120.1875 L 99.273438 -120.1875 L 64.539062 -46.03125 C 63.699219 -44.347656 62.859375 -43.507812 61.898438 -43.507812 C 60.933594 -43.507812 59.972656 -44.347656 59.132812 -45.910156 L 19.46875 -120.1875 L 9.613281 -120.1875 L 9.613281 0 Z M 19.710938 0 "/></g></g></g><g clip-path="url(#674ff7dbfe)"><path fill="#ffffff" d="M 163.257812 95.253906 L 208.960938 95.253906 L 208.960938 234.121094 L 163.257812 234.121094 Z M 163.257812 95.253906 " fill-opacity="1" fill-rule="nonzero"/></g><g fill="#000000" fill-opacity="1"><g transform="translate(93.23528, 228.969873)"><g><path d="M 74.757812 -27.882812 C 78.363281 -27.882812 80.886719 -25.359375 80.886719 -21.753906 L 80.886719 0 L 90.5 0 L 90.5 -21.753906 C 90.5 -25.359375 93.023438 -27.882812 96.628906 -27.882812 L 101.796875 -27.882812 L 101.796875 -36.898438 L 96.628906 -36.898438 C 93.023438 -36.898438 90.5 -39.421875 90.5 -43.027344 L 90.5 -120.1875 L 80.886719 -120.1875 L 80.886719 -43.027344 C 80.886719 -39.421875 78.363281 -36.898438 74.757812 -36.898438 L 18.507812 -36.898438 C 14.664062 -36.898438 13.820312 -39.300781 16.34375 -42.304688 C 35.574219 -65.140625 47.113281 -99.394531 47.113281 -120.1875 L 36.898438 -120.1875 C 38.460938 -82.6875 27.761719 -56.726562 0.601562 -27.882812 Z M 74.757812 -27.882812 "/></g></g></g><g fill="#000000" fill-opacity="1"><g transform="translate(106.980234, 266.49051)"><g><path d="M 2.109375 -3.828125 L 2.109375 0 L 1.03125 0 L 1.03125 -8.40625 L 6.671875 -8.40625 L 6.671875 -7.453125 L 2.109375 -7.453125 L 2.109375 -4.765625 L 6.125 -4.765625 L 6.125 -3.828125 Z M 2.109375 -3.828125 "/></g></g></g><g fill="#000000" fill-opacity="1"><g transform="translate(123.236191, 266.49051)"><g><path d="M 8.5625 -4.078125 C 8.5625 -3.472656 8.460938 -2.90625 8.265625 -2.375 C 8.078125 -1.84375 7.8125 -1.378906 7.46875 -0.984375 C 7.125 -0.597656 6.695312 -0.289062 6.1875 -0.0625 C 5.675781 0.15625 5.113281 0.265625 4.5 0.265625 C 3.28125 0.265625 2.296875 -0.140625 1.546875 -0.953125 C 0.804688 -1.765625 0.4375 -2.828125 0.4375 -4.140625 C 0.4375 -5.453125 0.804688 -6.515625 1.546875 -7.328125 C 2.296875 -8.140625 3.273438 -8.546875 4.484375 -8.546875 C 5.710938 -8.546875 6.695312 -8.140625 7.4375 -7.328125 C 8.1875 -6.515625 8.5625 -5.429688 8.5625 -4.078125 Z M 4.484375 -7.59375 C 3.597656 -7.59375 2.878906 -7.273438 2.328125 -6.640625 C 1.773438 -6.003906 1.5 -5.164062 1.5 -4.125 C 1.5 -3.09375 1.773438 -2.257812 2.328125 -1.625 C 2.878906 -0.988281 3.601562 -0.671875 4.5 -0.671875 C 5.382812 -0.671875 6.101562 -0.984375 6.65625 -1.609375 C 7.207031 -2.242188 7.484375 -3.070312 7.484375 -4.09375 C 7.484375 -5.15625 7.207031 -6.003906 6.65625 -6.640625 C 6.113281 -7.273438 5.390625 -7.59375 4.484375 -7.59375 Z M 4.484375 -7.59375 "/></g></g></g><g fill="#000000" fill-opacity="1"><g transform="translate(141.419303, 266.49051)"><g><path d="M 6.375 -8.40625 L 7.4375 -8.40625 L 7.4375 -2.5 C 7.4375 -1.65625 7.140625 -0.984375 6.546875 -0.484375 C 5.960938 0.015625 5.179688 0.265625 4.203125 0.265625 C 3.203125 0.265625 2.414062 0.0195312 1.84375 -0.46875 C 1.269531 -0.96875 0.984375 -1.644531 0.984375 -2.5 L 0.984375 -8.40625 L 2.046875 -8.40625 L 2.046875 -2.5 C 2.046875 -1.894531 2.238281 -1.4375 2.625 -1.125 C 3.019531 -0.820312 3.546875 -0.671875 4.203125 -0.671875 C 4.867188 -0.671875 5.394531 -0.832031 5.78125 -1.15625 C 6.175781 -1.488281 6.375 -1.9375 6.375 -2.5 Z M 6.375 -8.40625 "/></g></g></g><g fill="#000000" fill-opacity="1"><g transform="translate(158.955758, 266.49051)"><g><path d="M 6.1875 -4.15625 C 6.46875 -4.03125 6.691406 -3.875 6.859375 -3.6875 C 7.035156 -3.507812 7.148438 -3.320312 7.203125 -3.125 C 7.265625 -2.925781 7.300781 -2.71875 7.3125 -2.5 C 7.332031 -2.28125 7.335938 -2.0625 7.328125 -1.84375 C 7.328125 -1.632812 7.328125 -1.429688 7.328125 -1.234375 C 7.335938 -1.046875 7.378906 -0.863281 7.453125 -0.6875 C 7.535156 -0.507812 7.660156 -0.367188 7.828125 -0.265625 L 7.828125 0 L 6.53125 0 C 6.375 -0.363281 6.296875 -0.820312 6.296875 -1.375 L 6.296875 -2.125 C 6.296875 -2.644531 6.179688 -3.023438 5.953125 -3.265625 C 5.734375 -3.503906 5.382812 -3.625 4.90625 -3.625 L 2.140625 -3.625 L 2.140625 0 L 1.078125 0 L 1.078125 -8.40625 L 4.953125 -8.40625 C 5.773438 -8.40625 6.40625 -8.210938 6.84375 -7.828125 C 7.28125 -7.441406 7.5 -6.882812 7.5 -6.15625 C 7.5 -5.675781 7.394531 -5.28125 7.1875 -4.96875 C 6.988281 -4.65625 6.65625 -4.382812 6.1875 -4.15625 Z M 6.390625 -6.015625 C 6.390625 -6.296875 6.347656 -6.535156 6.265625 -6.734375 C 6.179688 -6.929688 6.054688 -7.078125 5.890625 -7.171875 C 5.734375 -7.273438 5.5625 -7.347656 5.375 -7.390625 C 5.195312 -7.429688 4.984375 -7.453125 4.734375 -7.453125 L 2.140625 -7.453125 L 2.140625 -4.5625 L 4.734375 -4.5625 C 5.304688 -4.5625 5.722656 -4.675781 5.984375 -4.90625 C 6.253906 -5.144531 6.390625 -5.515625 6.390625 -6.015625 Z M 6.390625 -6.015625 "/></g></g></g><g fill="#000000" fill-opacity="1"><g transform="translate(176.492209, 266.49051)"><g/></g></g><g fill="#000000" fill-opacity="1"><g transform="translate(188.913064, 266.49051)"><g><path d="M 5.390625 0 L 4.265625 0 L 1.875 -7.046875 L 1.875 0 L 0.859375 0 L 0.859375 -8.40625 L 2.34375 -8.40625 L 4.84375 -1.078125 L 7.296875 -8.40625 L 8.78125 -8.40625 L 8.78125 0 L 7.765625 0 L 7.765625 -7.046875 Z M 5.390625 0 "/></g></g></g><g fill="#000000" fill-opacity="1"><g transform="translate(207.723622, 266.49051)"><g><path d="M 8.5625 -4.078125 C 8.5625 -3.472656 8.460938 -2.90625 8.265625 -2.375 C 8.078125 -1.84375 7.8125 -1.378906 7.46875 -0.984375 C 7.125 -0.597656 6.695312 -0.289062 6.1875 -0.0625 C 5.675781 0.15625 5.113281 0.265625 4.5 0.265625 C 3.28125 0.265625 2.296875 -0.140625 1.546875 -0.953125 C 0.804688 -1.765625 0.4375 -2.828125 0.4375 -4.140625 C 0.4375 -5.453125 0.804688 -6.515625 1.546875 -7.328125 C 2.296875 -8.140625 3.273438 -8.546875 4.484375 -8.546875 C 5.710938 -8.546875 6.695312 -8.140625 7.4375 -7.328125 C 8.1875 -6.515625 8.5625 -5.429688 8.5625 -4.078125 Z M 4.484375 -7.59375 C 3.597656 -7.59375 2.878906 -7.273438 2.328125 -6.640625 C 1.773438 -6.003906 1.5 -5.164062 1.5 -4.125 C 1.5 -3.09375 1.773438 -2.257812 2.328125 -1.625 C 2.878906 -0.988281 3.601562 -0.671875 4.5 -0.671875 C 5.382812 -0.671875 6.101562 -0.984375 6.65625 -1.609375 C 7.207031 -2.242188 7.484375 -3.070312 7.484375 -4.09375 C 7.484375 -5.15625 7.207031 -6.003906 6.65625 -6.640625 C 6.113281 -7.273438 5.390625 -7.59375 4.484375 -7.59375 Z M 4.484375 -7.59375 "/></g></g></g><g fill="#000000" fill-opacity="1"><g transform="translate(225.906732, 266.49051)"><g><path d="M 7.453125 -8.40625 L 7.453125 0 L 6.234375 0 L 1.890625 -6.8125 L 1.890625 0 L 0.875 0 L 0.875 -8.40625 L 2.046875 -8.40625 L 6.4375 -1.53125 L 6.4375 -8.40625 Z M 7.453125 -8.40625 "/></g></g></g><g fill="#000000" fill-opacity="1"><g transform="translate(243.443191, 266.49051)"><g><path d="M 2.109375 -3.828125 L 2.109375 -0.953125 L 7.078125 -0.953125 L 7.078125 0 L 1.03125 0 L 1.03125 -8.40625 L 6.859375 -8.40625 L 6.859375 -7.453125 L 2.109375 -7.453125 L 2.109375 -4.765625 L 6.6875 -4.765625 L 6.6875 -3.828125 Z M 2.109375 -3.828125 "/></g></g></g><g fill="#000000" fill-opacity="1"><g transform="translate(260.345812, 266.49051)"><g><path d="M 4.453125 -3.296875 L 4.453125 0 L 3.390625 0 L 3.390625 -3.296875 L 0.15625 -8.40625 L 1.46875 -8.40625 L 3.953125 -4.3125 L 6.34375 -8.40625 L 7.625 -8.40625 Z M 4.453125 -3.296875 "/></g></g></g></svg>