<svg xmlns="http://www.w3.org/2000/svg"  viewBox="0 0 16 16" width="160px" height="160px"><path d="M 7.5 1 C 3.917969 1 1 3.917969 1 7.5 C 1 11.082031 3.917969 14 7.5 14 C 11.082031 14 14 11.082031 14 7.5 C 14 3.917969 11.082031 1 7.5 1 Z M 7.5 2 L 8.582031 3.191406 C 8.515625 3.269531 8.25 3.597656 8.25 4.375 C 8.730469 3.773438 8.96875 3.644531 8.984375 3.632813 L 9.46875 4.164063 C 8.996094 4.558594 8 5.511719 8 6.5 C 8 7.328125 8.671875 8 9.5 8 C 10.246094 8 11 7.382813 11 6 C 11 4.351563 10.308594 3.195313 9.5625 2.402344 C 11.578125 3.214844 13 5.1875 13 7.5 C 13 10.542969 10.542969 13 7.5 13 C 4.457031 13 2 10.542969 2 7.5 C 2 5.1875 3.421875 3.214844 5.4375 2.402344 C 4.691406 3.195313 4 4.351563 4 6 C 4 7.382813 4.753906 8 5.5 8 C 6.328125 8 7 7.328125 7 6.5 C 7 5.511719 6.003906 4.5625 5.53125 4.164063 L 6.015625 3.632813 C 6.03125 3.644531 6.269531 3.773438 6.75 4.375 C 6.75 3.597656 6.484375 3.269531 6.417969 3.191406 Z M 5.148438 5.164063 C 5.558594 5.558594 6 6.097656 6 6.5 C 6 6.777344 5.773438 7 5.5 7 C 5.132813 7 5 6.460938 5 6 C 5 5.664063 5.070313 5.378906 5.148438 5.164063 Z M 9.851563 5.164063 C 9.929688 5.378906 10 5.664063 10 6 C 10 6.460938 9.867188 7 9.5 7 C 9.226563 7 9 6.777344 9 6.5 C 9 6.097656 9.441406 5.558594 9.851563 5.164063 Z"/></svg>