<svg xmlns="http://www.w3.org/2000/svg"  viewBox="0 0 16 16" width="160px" height="160px"><path d="M 7.5 1 C 5.8712787 1 4.231308 1.5408397 3.0058594 2.7714844 C 1.7804108 4.0021291 1 5.9012667 1 8.5 C 1 8.8333333 1.0941385 9.1327357 1.2675781 9.3476562 C 1.4410178 9.562577 1.6644603 9.6708953 1.8378906 9.7304688 C 1.9178475 9.7579338 1.9404522 9.7602164 2 9.7753906 L 2 14 L 3 14 L 3 9.5 C 3 9.3277547 2.8943776 9.1239465 2.78125 9.0273438 C 2.6681224 8.9307408 2.573912 8.9014702 2.4980469 8.8769531 C 2.3463166 8.827919 2.2386791 8.8114579 2.1621094 8.7851562 C 2.0855397 8.7588546 2.0589822 8.7381262 2.0449219 8.7207031 C 2.0308615 8.70328 2 8.6666667 2 8.5 C 2 6.0987333 2.6997924 4.4978709 3.7148438 3.4785156 C 4.729895 2.4591603 6.0907213 2 7.5 2 C 8.9092787 2 10.270105 2.4591603 11.285156 3.4785156 C 12.300208 4.4978709 13 6.0987333 13 8.5 C 13 8.6666667 12.969138 8.70328 12.955078 8.7207031 C 12.941018 8.7381261 12.914458 8.7588542 12.837891 8.7851562 C 12.761321 8.8114582 12.653683 8.8279191 12.501953 8.8769531 C 12.426083 8.9014701 12.331878 8.930741 12.21875 9.0273438 C 12.10562 9.1239465 12 9.3277547 12 9.5 L 12 14 L 13 14 L 13 9.7753906 C 13.05955 9.7602166 13.08215 9.7579337 13.162109 9.7304688 C 13.33554 9.6708955 13.558982 9.5625769 13.732422 9.3476562 C 13.905862 9.1327357 14 8.8333333 14 8.5 C 14 5.9012667 13.219589 4.0021291 11.994141 2.7714844 C 10.768692 1.5408397 9.1287213 1 7.5 1 z M 5 4 C 3.9014686 4 3 4.9014686 3 6 C 3 6.8903985 3.5968717 7.6420595 4.40625 7.8984375 C 4.1548921 8.3807699 4 8.9204323 4 9.5 L 4 10.5 C 4 11.322531 4.6774686 12 5.5 12 C 6.3225314 12 7 11.322531 7 10.5 L 7 9.9414062 A 1.5 1 0 0 0 7.5 10 A 1.5 1 0 0 0 8 9.9414062 L 8 10.5 C 8 11.322531 8.6774686 12 9.5 12 C 10.322531 12 11 11.322531 11 10.5 L 11 9.5 C 11 8.9204323 10.845108 8.3807699 10.59375 7.8984375 C 11.403128 7.6420595 12 6.8903985 12 6 C 12 4.9014686 11.098531 4 10 4 C 8.9014686 4 8 4.9014686 8 6 C 8 6.0182039 8.0073225 6.0346254 8.0078125 6.0527344 C 7.840487 6.0279882 7.6739993 6 7.5 6 C 7.3260007 6 7.159513 6.0279882 6.9921875 6.0527344 C 6.9926775 6.0346254 7 6.0182039 7 6 C 7 4.9014686 6.0985314 4 5 4 z M 5 5 C 5.5574686 5 6 5.4425314 6 6 C 6 6.1463874 5.9613134 6.2793307 5.90625 6.4023438 C 5.5993939 6.5612829 5.3142447 6.7554891 5.0683594 6.9941406 C 5.0455672 6.9957854 5.0232084 7 5 7 C 4.4425314 7 4 6.5574686 4 6 C 4 5.4425314 4.4425314 5 5 5 z M 10 5 C 10.557469 5 11 5.4425314 11 6 C 11 6.5574686 10.557469 7 10 7 C 9.9767916 7 9.9544328 6.9957854 9.9316406 6.9941406 C 9.6857553 6.7554891 9.4006061 6.5612829 9.09375 6.4023438 C 9.0386866 6.2793307 9 6.1463874 9 6 C 9 5.4425314 9.4425314 5 10 5 z M 7.5 7 C 8.886833 7 10 8.113167 10 9.5 L 10 10.5 C 10 10.781469 9.7814686 11 9.5 11 C 9.2185314 11 9 10.781469 9 10.5 L 9 9 L 8.9980469 9 A 1.5 1 0 0 0 7.5 8 A 1.5 1 0 0 0 6.0019531 9 L 6 9 L 6 10.5 C 6 10.781469 5.7814686 11 5.5 11 C 5.2185314 11 5 10.781469 5 10.5 L 5 9.5 C 5 8.113167 6.113167 7 7.5 7 z"/></svg>